<?xml version="1.0" encoding="UTF-8" standalone="no"?>
<!DOCTYPE svg PUBLIC "-//W3C//DTD SVG 1.1//EN"
 "http://www.w3.org/Graphics/SVG/1.1/DTD/svg11.dtd">
<!-- Generated by graphviz version 9.0.0 (20230911.1827)
 -->
<!-- Pages: 1 -->
<svg width="1531pt" height="1001pt"
 viewBox="0.00 0.00 1530.95 1001.40" xmlns="http://www.w3.org/2000/svg" xmlns:xlink="http://www.w3.org/1999/xlink">
<g id="graph0" class="graph" transform="scale(1 1) rotate(0) translate(144 857.4)">
<polygon fill="white" stroke="none" points="-144,144 -144,-857.4 1386.95,-857.4 1386.95,144 -144,144"/>
<g id="clust1" class="cluster">
<title>cluster_AWS</title>
<path fill="#e5f5fd" stroke="#aeb6be" d="M274.15,-172.4C274.15,-172.4 1222.95,-172.4 1222.95,-172.4 1228.95,-172.4 1234.95,-178.4 1234.95,-184.4 1234.95,-184.4 1234.95,-693.4 1234.95,-693.4 1234.95,-699.4 1228.95,-705.4 1222.95,-705.4 1222.95,-705.4 274.15,-705.4 274.15,-705.4 268.15,-705.4 262.15,-699.4 262.15,-693.4 262.15,-693.4 262.15,-184.4 262.15,-184.4 262.15,-178.4 268.15,-172.4 274.15,-172.4"/>
<text text-anchor="middle" x="283.65" y="-690" font-family="Sans-Serif" font-size="12.00" fill="#2d3436">AWS</text>
</g>
<!-- 114b7934376049c1bcfaa89a07eb29ea -->
<g id="node1" class="node">
<title>114b7934376049c1bcfaa89a07eb29ea</title>
<image xlink:href="/Users/tom/Code/Projects/aws-diagrams/env/lib/python3.11/site-packages/resources/onprem/ci/github-actions.png" width="100.8px" height="100.8px" preserveAspectRatio="xMinYMin meet" x="8.52651e-14" y="-235.8"/>
<text text-anchor="middle" x="50.4" y="-118.15" font-family="Sans-Serif" font-size="13.00" fill="#2d3436">Github Action</text>
</g>
<!-- 3cc39218f28f4819aeaab6a8f98044d3 -->
<g id="node4" class="node">
<title>3cc39218f28f4819aeaab6a8f98044d3</title>
<image xlink:href="/Users/tom/Code/Projects/aws-diagrams/env/lib/python3.11/site-packages/resources/aws/compute/lambda.png" width="100.8px" height="100.8px" preserveAspectRatio="xMinYMin meet" x="601.05" y="-329.8"/>
<text text-anchor="middle" x="651.45" y="-212.15" font-family="Sans-Serif" font-size="13.00" fill="#2d3436">Lambda</text>
</g>
<!-- 114b7934376049c1bcfaa89a07eb29ea&#45;&gt;3cc39218f28f4819aeaab6a8f98044d3 -->
<g id="edge7" class="edge">
<title>114b7934376049c1bcfaa89a07eb29ea&#45;&gt;3cc39218f28f4819aeaab6a8f98044d3</title>
<path fill="none" stroke="#7b8894" d="M100.74,-193.5C242.53,-193.5 634.95,-193.5 634.95,-193.5 634.95,-193.5 634.95,-199.78 634.95,-199.78"/>
<polygon fill="#7b8894" stroke="#7b8894" points="631.45,-199.78 634.95,-209.78 638.45,-199.79 631.45,-199.78"/>
<text text-anchor="middle" x="320.55" y="-151.55" font-family="Sans-Serif" font-size="13.00" fill="#2d3436">Deploys lambda code</text>
</g>
<!-- e855bf772ce04919a854d9ec84bebe80 -->
<g id="node9" class="node">
<title>e855bf772ce04919a854d9ec84bebe80</title>
<image xlink:href="/Users/tom/Code/Projects/aws-diagrams/env/lib/python3.11/site-packages/resources/aws/security/identity-and-access-management-iam.png" width="100.8px" height="100.8px" preserveAspectRatio="xMinYMin meet" x="270.15" y="-325.8"/>
<text text-anchor="middle" x="320.55" y="-208.15" font-family="Sans-Serif" font-size="13.00" fill="#2d3436">IAM</text>
</g>
<!-- 114b7934376049c1bcfaa89a07eb29ea&#45;&gt;e855bf772ce04919a854d9ec84bebe80 -->
<g id="edge8" class="edge">
<title>114b7934376049c1bcfaa89a07eb29ea&#45;&gt;e855bf772ce04919a854d9ec84bebe80</title>
<path fill="none" stroke="#7b8894" d="M100.58,-230.4C100.58,-230.4 258.67,-230.4 258.67,-230.4"/>
<polygon fill="#7b8894" stroke="#7b8894" points="258.67,-233.9 268.67,-230.4 258.67,-226.9 258.67,-233.9"/>
<text text-anchor="middle" x="178.43" y="-248.55" font-family="Sans-Serif" font-size="13.00" fill="#2d3436">Gets lambda role</text>
</g>
<!-- b35388e469ce4e49b75c6aebee411a02 -->
<g id="node2" class="node">
<title>b35388e469ce4e49b75c6aebee411a02</title>
<image xlink:href="/Users/tom/Code/Projects/aws-diagrams/env/lib/python3.11/site-packages/resources/aws/general/sdk.png" width="100.8px" height="100.8px" preserveAspectRatio="xMinYMin meet" x="970.35" y="-118.8"/>
<text text-anchor="middle" x="1020.75" y="-1.15" font-family="Sans-Serif" font-size="13.00" fill="#2d3436">Strava Api</text>
</g>
<!-- 7029ee093cb846b492022ee8b4e0f5d7 -->
<g id="node3" class="node">
<title>7029ee093cb846b492022ee8b4e0f5d7</title>
<image xlink:href="/Users/tom/Code/Projects/aws-diagrams/env/lib/python3.11/site-packages/resources/aws/integration/eventbridge.png" width="100.8px" height="100.8px" preserveAspectRatio="xMinYMin meet" x="270.15" y="-505.8"/>
<text text-anchor="middle" x="320.55" y="-388.15" font-family="Sans-Serif" font-size="13.00" fill="#2d3436">EventBridge</text>
</g>
<!-- 7029ee093cb846b492022ee8b4e0f5d7&#45;&gt;3cc39218f28f4819aeaab6a8f98044d3 -->
<g id="edge1" class="edge">
<title>7029ee093cb846b492022ee8b4e0f5d7&#45;&gt;3cc39218f28f4819aeaab6a8f98044d3</title>
<path fill="none" stroke="#7b8894" d="M370.8,-441.9C457.73,-441.9 626.95,-441.9 626.95,-441.9 626.95,-441.9 626.95,-358.89 626.95,-358.89"/>
<polygon fill="#7b8894" stroke="#7b8894" points="630.45,-358.89 626.95,-348.89 623.45,-358.89 630.45,-358.89"/>
<text text-anchor="middle" x="493.05" y="-368.55" font-family="Sans-Serif" font-size="13.00" fill="#2d3436">Run schedule once a week</text>
</g>
<!-- 3cc39218f28f4819aeaab6a8f98044d3&#45;&gt;b35388e469ce4e49b75c6aebee411a02 -->
<g id="edge6" class="edge">
<title>3cc39218f28f4819aeaab6a8f98044d3&#45;&gt;b35388e469ce4e49b75c6aebee411a02</title>
<path fill="none" stroke="#7b8894" d="M668.95,-211.18C668.95,-170.57 668.95,-126.9 668.95,-126.9 668.95,-126.9 959.21,-126.9 959.21,-126.9"/>
<polygon fill="#7b8894" stroke="#7b8894" points="959.21,-130.4 969.21,-126.9 959.21,-123.4 959.21,-130.4"/>
<text text-anchor="middle" x="836.1" y="-69.55" font-family="Sans-Serif" font-size="13.00" fill="#2d3436">Request access token / athlete data</text>
</g>
<!-- 20d99fd824e041dcad5329cd7cedcd46 -->
<g id="node5" class="node">
<title>20d99fd824e041dcad5329cd7cedcd46</title>
<image xlink:href="/Users/tom/Code/Projects/aws-diagrams/env/lib/python3.11/site-packages/resources/aws/security/key-management-service.png" width="100.8px" height="100.8px" preserveAspectRatio="xMinYMin meet" x="970.35" y="-298.8"/>
<text text-anchor="middle" x="1020.75" y="-181.15" font-family="Sans-Serif" font-size="13.00" fill="#2d3436">KMS</text>
</g>
<!-- 3cc39218f28f4819aeaab6a8f98044d3&#45;&gt;20d99fd824e041dcad5329cd7cedcd46 -->
<g id="edge2" class="edge">
<title>3cc39218f28f4819aeaab6a8f98044d3&#45;&gt;20d99fd824e041dcad5329cd7cedcd46</title>
<path fill="none" stroke="#7b8894" d="M701.64,-263.9C701.64,-263.9 958.86,-263.9 958.86,-263.9"/>
<polygon fill="#7b8894" stroke="#7b8894" points="958.86,-267.4 968.86,-263.9 958.86,-260.4 958.86,-267.4"/>
<text text-anchor="middle" x="836.1" y="-264.55" font-family="Sans-Serif" font-size="13.00" fill="#2d3436">Store / Retrive access token</text>
</g>
<!-- a983d0694e194f4c87fefa283450e4ab -->
<g id="node7" class="node">
<title>a983d0694e194f4c87fefa283450e4ab</title>
<image xlink:href="/Users/tom/Code/Projects/aws-diagrams/env/lib/python3.11/site-packages/resources/aws/engagement/simple-email-service-ses.png" width="100.8px" height="100.8px" preserveAspectRatio="xMinYMin meet" x="970.35" y="-478.8"/>
<text text-anchor="middle" x="1020.75" y="-361.15" font-family="Sans-Serif" font-size="13.00" fill="#2d3436">SES</text>
</g>
<!-- 3cc39218f28f4819aeaab6a8f98044d3&#45;&gt;a983d0694e194f4c87fefa283450e4ab -->
<g id="edge4" class="edge">
<title>3cc39218f28f4819aeaab6a8f98044d3&#45;&gt;a983d0694e194f4c87fefa283450e4ab</title>
<path fill="none" stroke="#7b8894" d="M676.95,-347.79C676.95,-362.38 676.95,-373.5 676.95,-373.5 676.95,-373.5 958.88,-373.5 958.88,-373.5"/>
<polygon fill="#7b8894" stroke="#7b8894" points="958.88,-377 968.88,-373.5 958.88,-370 958.88,-377"/>
<text text-anchor="middle" x="836.1" y="-385.55" font-family="Sans-Serif" font-size="13.00" fill="#2d3436">Send stats summary</text>
</g>
<!-- 59ec5d9e13544ae7a7592677ae4b82d8 -->
<g id="node8" class="node">
<title>59ec5d9e13544ae7a7592677ae4b82d8</title>
<image xlink:href="/Users/tom/Code/Projects/aws-diagrams/env/lib/python3.11/site-packages/resources/aws/management/cloudwatch.png" width="100.8px" height="100.8px" preserveAspectRatio="xMinYMin meet" x="970.35" y="-658.8"/>
<text text-anchor="middle" x="1020.75" y="-541.15" font-family="Sans-Serif" font-size="13.00" fill="#2d3436">CloudWatch</text>
</g>
<!-- 3cc39218f28f4819aeaab6a8f98044d3&#45;&gt;59ec5d9e13544ae7a7592677ae4b82d8 -->
<g id="edge5" class="edge">
<title>3cc39218f28f4819aeaab6a8f98044d3&#45;&gt;59ec5d9e13544ae7a7592677ae4b82d8</title>
<path fill="none" stroke="#7b8894" d="M651.95,-347.57C651.95,-443.94 651.95,-608.4 651.95,-608.4 651.95,-608.4 959.11,-608.4 959.11,-608.4"/>
<polygon fill="#7b8894" stroke="#7b8894" points="959.11,-611.9 969.11,-608.4 959.11,-604.9 959.11,-611.9"/>
<text text-anchor="middle" x="836.1" y="-535.55" font-family="Sans-Serif" font-size="13.00" fill="#2d3436">Logging</text>
</g>
<!-- a55dbaf52fcc4d68b836ac7843e6090f -->
<g id="node6" class="node">
<title>a55dbaf52fcc4d68b836ac7843e6090f</title>
<image xlink:href="/Users/tom/Code/Projects/aws-diagrams/env/lib/python3.11/site-packages/resources/aws/management/systems-manager-parameter-store.png" width="100.8px" height="100.8px" preserveAspectRatio="xMinYMin meet" x="1126.15" y="-298.8"/>
<text text-anchor="middle" x="1176.55" y="-181.15" font-family="Sans-Serif" font-size="13.00" fill="#2d3436">ParameterStore</text>
</g>
<!-- 20d99fd824e041dcad5329cd7cedcd46&#45;&gt;a55dbaf52fcc4d68b836ac7843e6090f -->
<g id="edge3" class="edge">
<title>20d99fd824e041dcad5329cd7cedcd46&#45;&gt;a55dbaf52fcc4d68b836ac7843e6090f</title>
<path fill="none" stroke="#7b8894" d="M1070.9,-248.4C1070.9,-248.4 1114.71,-248.4 1114.71,-248.4"/>
<polygon fill="#7b8894" stroke="#7b8894" points="1114.71,-251.9 1124.71,-248.4 1114.71,-244.9 1114.71,-251.9"/>
</g>
</g>
</svg>
