<svg width="751" height="707" viewBox="0 0 751 707" fill="none" xmlns="http://www.w3.org/2000/svg">
<path d="M0 1.99999C0 0.895418 0.89543 0 2 0H749C750.105 0 751 0.895431 751 2V705C751 706.105 750.105 707 749 707H2.00001C0.895445 707 0 706.105 0 705V1.99999Z" fill="white"/>
<path d="M40 129C40 127.895 40.8954 127 42 127H695C696.105 127 697 127.895 697 129V578C697 579.105 696.105 580 695 580H42C40.8954 580 40 579.105 40 578V129Z" fill="white"/>
<path d="M448.633 540.273V549H447.576V540.273H448.633ZM451.11 549H450.002L453.207 540.273H454.298L457.502 549H456.394L453.786 541.653H453.718L451.11 549ZM451.519 545.591H455.985V546.528H451.519V545.591ZM458.862 540.273H460.123L463.089 547.517H463.191L466.157 540.273H467.418V549H466.43V542.369H466.344L463.617 549H462.663L459.935 542.369H459.85V549H458.862V540.273Z" fill="black"/>
<g clip-path="url(#clip0_0_1)">
<path fill-rule="evenodd" clip-rule="evenodd" d="M427 332H491V396H427V332Z" fill="url(#paint0_linear_0_1)"/>
<path fill-rule="evenodd" clip-rule="evenodd" d="M449.68 384H440.574L450.838 362.41L455.4 371.861L449.68 384ZM451.727 359.667C451.646 359.498 451.519 359.356 451.36 359.256C451.202 359.156 451.018 359.103 450.831 359.103H450.828C450.64 359.103 450.456 359.157 450.298 359.258C450.139 359.359 450.012 359.502 449.932 359.672L438.097 384.569C437.95 384.879 437.971 385.243 438.154 385.534C438.335 385.824 438.654 386 438.996 386H450.31C450.499 386 450.684 385.946 450.843 385.845C451.002 385.743 451.13 385.599 451.21 385.428L457.404 372.284C457.468 372.149 457.5 372.001 457.499 371.851C457.498 371.702 457.464 371.555 457.399 371.42L451.727 359.667ZM478.008 384H468.986L453.955 351.578C453.875 351.406 453.748 351.26 453.588 351.157C453.428 351.055 453.242 351 453.052 351H447.128L447.135 344H458.815L473.775 376.42C473.938 376.774 474.291 377 474.679 377H478.009L478.008 384ZM479.004 375H475.314L460.354 342.58C460.275 342.407 460.147 342.261 459.987 342.158C459.827 342.055 459.641 342 459.451 342H446.14C445.876 342.001 445.622 342.106 445.436 342.294C445.249 342.481 445.144 342.735 445.144 342.999L445.136 351.999C445.135 352.13 445.16 352.26 445.209 352.382C445.259 352.503 445.332 352.614 445.425 352.707C445.517 352.8 445.627 352.874 445.749 352.924C445.87 352.975 446 353 446.131 353H452.417L467.447 385.422C467.527 385.595 467.654 385.741 467.814 385.843C467.974 385.945 468.16 386 468.35 386H479.004C479.554 386 480 385.552 480 385V376C480 375.448 479.555 375 479.004 375Z" fill="white"/>
</g>
<path d="M406.359 360.348C406.551 360.15 406.546 359.833 406.348 359.641L403.116 356.509C402.918 356.317 402.602 356.322 402.409 356.52C402.217 356.719 402.222 357.035 402.421 357.227L405.293 360.011L402.509 362.884C402.317 363.082 402.322 363.398 402.52 363.591C402.719 363.783 403.035 363.778 403.227 363.579L406.359 360.348ZM151.008 364.5L406.008 360.5L405.992 359.5L150.992 363.5L151.008 364.5Z" fill="black"/>
<path d="M544.354 360.354C544.549 360.158 544.549 359.842 544.354 359.646L541.172 356.464C540.976 356.269 540.66 356.269 540.464 356.464C540.269 356.66 540.269 356.976 540.464 357.172L543.293 360L540.464 362.828C540.269 363.024 540.269 363.34 540.464 363.536C540.66 363.731 540.976 363.731 541.172 363.536L544.354 360.354ZM504 360.5H544V359.5H504V360.5Z" fill="black"/>
<path d="M410.958 328.498C411.233 328.522 411.475 328.317 411.498 328.042L411.878 323.558C411.902 323.283 411.697 323.041 411.422 323.018C411.147 322.995 410.905 323.199 410.882 323.474L410.544 327.46L406.558 327.122C406.283 327.098 406.041 327.303 406.018 327.578C405.995 327.853 406.199 328.095 406.474 328.118L410.958 328.498ZM383.618 296.322L410.618 328.322L411.382 327.678L384.382 295.678L383.618 296.322Z" fill="black"/>
<path d="M384.042 295.502C383.767 295.478 383.525 295.683 383.502 295.958L383.122 300.442C383.098 300.717 383.303 300.959 383.578 300.982C383.853 301.005 384.095 300.801 384.118 300.526L384.456 296.54L388.442 296.878C388.717 296.902 388.959 296.697 388.982 296.422C389.005 296.147 388.801 295.905 388.526 295.882L384.042 295.502ZM411.382 327.678L384.382 295.678L383.618 296.322L410.618 328.322L411.382 327.678Z" fill="black"/>
<path d="M458.354 110.646C458.158 110.451 457.842 110.451 457.646 110.646L454.464 113.828C454.269 114.024 454.269 114.34 454.464 114.536C454.66 114.731 454.976 114.731 455.172 114.536L458 111.707L460.828 114.536C461.024 114.731 461.34 114.731 461.536 114.536C461.731 114.34 461.731 114.024 461.536 113.828L458.354 110.646ZM458.5 314V111H457.5V314H458.5Z" fill="black"/>
<path d="M457.646 314.354C457.842 314.549 458.158 314.549 458.354 314.354L461.536 311.172C461.731 310.976 461.731 310.66 461.536 310.464C461.34 310.269 461.024 310.269 460.828 310.464L458 313.293L455.172 310.464C454.976 310.269 454.66 310.269 454.464 310.464C454.269 310.66 454.269 310.976 454.464 311.172L457.646 314.354ZM457.5 111L457.5 314H458.5L458.5 111H457.5Z" fill="black"/>
<path d="M437.752 410V401.273H438.809V409.062H442.866V410H437.752ZM446.292 410.153C445.877 410.153 445.501 410.075 445.163 409.919C444.825 409.76 444.556 409.531 444.357 409.233C444.158 408.932 444.059 408.568 444.059 408.142C444.059 407.767 444.133 407.463 444.281 407.23C444.428 406.994 444.626 406.81 444.873 406.676C445.12 406.543 445.393 406.443 445.691 406.378C445.992 406.31 446.295 406.256 446.599 406.216C446.996 406.165 447.319 406.126 447.566 406.101C447.816 406.072 447.998 406.026 448.112 405.96C448.228 405.895 448.286 405.781 448.286 405.619V405.585C448.286 405.165 448.171 404.838 447.941 404.605C447.714 404.372 447.369 404.256 446.906 404.256C446.425 404.256 446.049 404.361 445.776 404.571C445.504 404.781 445.312 405.006 445.201 405.244L444.246 404.903C444.417 404.506 444.644 404.196 444.928 403.974C445.215 403.75 445.528 403.594 445.866 403.506C446.207 403.415 446.542 403.369 446.871 403.369C447.082 403.369 447.323 403.395 447.596 403.446C447.871 403.494 448.137 403.595 448.393 403.749C448.651 403.902 448.866 404.134 449.036 404.443C449.207 404.753 449.292 405.168 449.292 405.688V410H448.286V409.114H448.235C448.167 409.256 448.053 409.408 447.894 409.57C447.735 409.732 447.523 409.869 447.259 409.983C446.995 410.097 446.673 410.153 446.292 410.153ZM446.445 409.25C446.843 409.25 447.178 409.172 447.451 409.016C447.727 408.859 447.934 408.658 448.073 408.411C448.215 408.163 448.286 407.903 448.286 407.631V406.71C448.244 406.761 448.15 406.808 448.005 406.851C447.863 406.891 447.698 406.926 447.511 406.957C447.326 406.986 447.146 407.011 446.969 407.034C446.796 407.054 446.656 407.071 446.548 407.085C446.286 407.119 446.042 407.175 445.815 407.251C445.59 407.325 445.408 407.437 445.269 407.588C445.133 407.736 445.065 407.937 445.065 408.193C445.065 408.543 445.194 408.807 445.452 408.986C445.714 409.162 446.045 409.25 446.445 409.25ZM451.127 410V403.455H452.099V404.477H452.184C452.321 404.128 452.541 403.857 452.845 403.663C453.149 403.467 453.514 403.369 453.94 403.369C454.372 403.369 454.731 403.467 455.018 403.663C455.308 403.857 455.534 404.128 455.696 404.477H455.764C455.931 404.139 456.183 403.871 456.518 403.672C456.853 403.47 457.255 403.369 457.724 403.369C458.309 403.369 458.788 403.553 459.16 403.919C459.532 404.283 459.718 404.849 459.718 405.619V410H458.713V405.619C458.713 405.136 458.581 404.791 458.316 404.584C458.052 404.376 457.741 404.273 457.383 404.273C456.923 404.273 456.566 404.412 456.314 404.69C456.061 404.966 455.934 405.315 455.934 405.739V410H454.912V405.517C454.912 405.145 454.791 404.845 454.549 404.618C454.308 404.388 453.997 404.273 453.616 404.273C453.355 404.273 453.11 404.342 452.883 404.482C452.659 404.621 452.477 404.814 452.338 405.061C452.201 405.305 452.133 405.588 452.133 405.909V410H451.127ZM461.694 410V401.273H462.699V404.494H462.784C462.858 404.381 462.961 404.236 463.091 404.06C463.225 403.881 463.415 403.722 463.662 403.582C463.912 403.44 464.25 403.369 464.676 403.369C465.228 403.369 465.713 403.507 466.134 403.783C466.554 404.058 466.882 404.449 467.118 404.955C467.354 405.46 467.472 406.057 467.472 406.744C467.472 407.438 467.354 408.038 467.118 408.547C466.882 409.053 466.556 409.445 466.138 409.723C465.721 409.999 465.239 410.136 464.694 410.136C464.273 410.136 463.936 410.067 463.684 409.928C463.431 409.786 463.236 409.625 463.1 409.446C462.963 409.264 462.858 409.114 462.784 408.994H462.665V410H461.694ZM462.682 406.727C462.682 407.222 462.755 407.658 462.9 408.036C463.044 408.411 463.256 408.705 463.534 408.918C463.813 409.128 464.154 409.233 464.557 409.233C464.978 409.233 465.328 409.122 465.61 408.901C465.894 408.676 466.107 408.375 466.249 407.997C466.394 407.616 466.466 407.193 466.466 406.727C466.466 406.267 466.395 405.852 466.253 405.483C466.114 405.111 465.902 404.817 465.618 404.601C465.337 404.382 464.983 404.273 464.557 404.273C464.148 404.273 463.804 404.376 463.526 404.584C463.248 404.788 463.037 405.075 462.895 405.445C462.753 405.811 462.682 406.239 462.682 406.727ZM471.482 410.136C470.936 410.136 470.455 409.999 470.037 409.723C469.62 409.445 469.293 409.053 469.057 408.547C468.821 408.038 468.703 407.438 468.703 406.744C468.703 406.057 468.821 405.46 469.057 404.955C469.293 404.449 469.621 404.058 470.042 403.783C470.462 403.507 470.948 403.369 471.499 403.369C471.925 403.369 472.262 403.44 472.509 403.582C472.759 403.722 472.949 403.881 473.08 404.06C473.213 404.236 473.317 404.381 473.391 404.494H473.476V401.273H474.482V410H473.51V408.994H473.391C473.317 409.114 473.212 409.264 473.076 409.446C472.939 409.625 472.745 409.786 472.492 409.928C472.239 410.067 471.902 410.136 471.482 410.136ZM471.618 409.233C472.022 409.233 472.363 409.128 472.641 408.918C472.919 408.705 473.131 408.411 473.276 408.036C473.421 407.658 473.493 407.222 473.493 406.727C473.493 406.239 473.422 405.811 473.28 405.445C473.138 405.075 472.928 404.788 472.65 404.584C472.371 404.376 472.027 404.273 471.618 404.273C471.192 404.273 470.837 404.382 470.553 404.601C470.272 404.817 470.06 405.111 469.918 405.483C469.779 405.852 469.709 406.267 469.709 406.727C469.709 407.193 469.78 407.616 469.922 407.997C470.067 408.375 470.28 408.676 470.561 408.901C470.846 409.122 471.198 409.233 471.618 409.233ZM478.39 410.153C477.975 410.153 477.598 410.075 477.26 409.919C476.922 409.76 476.654 409.531 476.455 409.233C476.256 408.932 476.157 408.568 476.157 408.142C476.157 407.767 476.23 407.463 476.378 407.23C476.526 406.994 476.723 406.81 476.971 406.676C477.218 406.543 477.49 406.443 477.789 406.378C478.09 406.31 478.392 406.256 478.696 406.216C479.094 406.165 479.417 406.126 479.664 406.101C479.914 406.072 480.096 406.026 480.209 405.96C480.326 405.895 480.384 405.781 480.384 405.619V405.585C480.384 405.165 480.269 404.838 480.039 404.605C479.811 404.372 479.466 404.256 479.003 404.256C478.523 404.256 478.147 404.361 477.874 404.571C477.601 404.781 477.409 405.006 477.299 405.244L476.344 404.903C476.515 404.506 476.742 404.196 477.026 403.974C477.313 403.75 477.625 403.594 477.963 403.506C478.304 403.415 478.64 403.369 478.969 403.369C479.179 403.369 479.421 403.395 479.694 403.446C479.969 403.494 480.235 403.595 480.49 403.749C480.749 403.902 480.963 404.134 481.134 404.443C481.304 404.753 481.39 405.168 481.39 405.688V410H480.384V409.114H480.333C480.265 409.256 480.151 409.408 479.992 409.57C479.833 409.732 479.621 409.869 479.357 409.983C479.093 410.097 478.77 410.153 478.39 410.153ZM478.543 409.25C478.941 409.25 479.276 409.172 479.549 409.016C479.824 408.859 480.032 408.658 480.171 408.411C480.313 408.163 480.384 407.903 480.384 407.631V406.71C480.341 406.761 480.248 406.808 480.103 406.851C479.961 406.891 479.796 406.926 479.608 406.957C479.424 406.986 479.243 407.011 479.067 407.034C478.894 407.054 478.753 407.071 478.645 407.085C478.384 407.119 478.14 407.175 477.912 407.251C477.688 407.325 477.506 407.437 477.367 407.588C477.23 407.736 477.162 407.937 477.162 408.193C477.162 408.543 477.292 408.807 477.55 408.986C477.811 409.162 478.142 409.25 478.543 409.25Z" fill="black"/>
<path d="M580.091 402.455C580.04 402.023 579.833 401.688 579.469 401.449C579.105 401.21 578.659 401.091 578.131 401.091C577.745 401.091 577.407 401.153 577.117 401.278C576.83 401.403 576.605 401.575 576.444 401.794C576.284 402.013 576.205 402.261 576.205 402.54C576.205 402.773 576.26 402.973 576.371 403.141C576.485 403.305 576.63 403.443 576.806 403.554C576.982 403.662 577.167 403.751 577.36 403.822C577.553 403.891 577.73 403.946 577.892 403.989L578.779 404.227C579.006 404.287 579.259 404.369 579.537 404.474C579.819 404.58 580.087 404.723 580.343 404.905C580.601 405.084 580.814 405.314 580.982 405.595C581.15 405.876 581.233 406.222 581.233 406.631C581.233 407.102 581.11 407.528 580.863 407.909C580.618 408.29 580.26 408.592 579.789 408.817C579.32 409.041 578.75 409.153 578.08 409.153C577.455 409.153 576.914 409.053 576.456 408.851C576.002 408.649 575.644 408.368 575.382 408.007C575.124 407.646 574.978 407.227 574.944 406.75H576.034C576.063 407.08 576.174 407.352 576.367 407.568C576.563 407.781 576.81 407.94 577.108 408.045C577.409 408.148 577.733 408.199 578.08 408.199C578.483 408.199 578.846 408.134 579.167 408.003C579.488 407.869 579.742 407.685 579.929 407.449C580.117 407.21 580.211 406.932 580.211 406.614C580.211 406.324 580.13 406.088 579.968 405.906C579.806 405.724 579.593 405.577 579.328 405.463C579.064 405.349 578.779 405.25 578.472 405.165L577.398 404.858C576.716 404.662 576.176 404.382 575.779 404.018C575.381 403.655 575.182 403.179 575.182 402.591C575.182 402.102 575.314 401.676 575.578 401.312C575.846 400.946 576.203 400.662 576.652 400.46C577.104 400.256 577.608 400.153 578.165 400.153C578.728 400.153 579.228 400.254 579.665 400.456C580.103 400.655 580.449 400.928 580.705 401.274C580.963 401.621 581.1 402.014 581.114 402.455H580.091ZM582.971 409V400.273H588.238V401.21H584.028V404.159H587.965V405.097H584.028V408.062H588.306V409H582.971ZM594.915 402.455C594.864 402.023 594.657 401.688 594.293 401.449C593.93 401.21 593.484 401.091 592.955 401.091C592.569 401.091 592.231 401.153 591.941 401.278C591.654 401.403 591.43 401.575 591.268 401.794C591.109 402.013 591.029 402.261 591.029 402.54C591.029 402.773 591.085 402.973 591.195 403.141C591.309 403.305 591.454 403.443 591.63 403.554C591.806 403.662 591.991 403.751 592.184 403.822C592.377 403.891 592.555 403.946 592.717 403.989L593.603 404.227C593.83 404.287 594.083 404.369 594.362 404.474C594.643 404.58 594.911 404.723 595.167 404.905C595.425 405.084 595.638 405.314 595.806 405.595C595.974 405.876 596.058 406.222 596.058 406.631C596.058 407.102 595.934 407.528 595.687 407.909C595.442 408.29 595.085 408.592 594.613 408.817C594.144 409.041 593.575 409.153 592.904 409.153C592.279 409.153 591.738 409.053 591.281 408.851C590.826 408.649 590.468 408.368 590.207 408.007C589.948 407.646 589.802 407.227 589.768 406.75H590.859C590.887 407.08 590.998 407.352 591.191 407.568C591.387 407.781 591.634 407.94 591.933 408.045C592.234 408.148 592.558 408.199 592.904 408.199C593.308 408.199 593.67 408.134 593.991 408.003C594.312 407.869 594.566 407.685 594.754 407.449C594.941 407.21 595.035 406.932 595.035 406.614C595.035 406.324 594.954 406.088 594.792 405.906C594.63 405.724 594.417 405.577 594.153 405.463C593.888 405.349 593.603 405.25 593.296 405.165L592.222 404.858C591.54 404.662 591.001 404.382 590.603 404.018C590.205 403.655 590.006 403.179 590.006 402.591C590.006 402.102 590.138 401.676 590.403 401.312C590.67 400.946 591.028 400.662 591.477 400.46C591.928 400.256 592.433 400.153 592.989 400.153C593.552 400.153 594.052 400.254 594.489 400.456C594.927 400.655 595.273 400.928 595.529 401.274C595.788 401.621 595.924 402.014 595.938 402.455H594.915Z" fill="black"/>
<path d="M67.4455 412V403.273H72.7125V404.21H68.5023V407.159H72.4398V408.097H68.5023V411.062H72.7807V412H67.4455ZM79.8333 405.455L77.4128 412H76.3901L73.9696 405.455H75.0605L76.8674 410.67H76.9355L78.7424 405.455H79.8333ZM83.6706 412.136C83.04 412.136 82.4959 411.997 82.0385 411.719C81.584 411.438 81.2331 411.045 80.986 410.543C80.7417 410.037 80.6195 409.449 80.6195 408.778C80.6195 408.108 80.7417 407.517 80.986 407.006C81.2331 406.491 81.5769 406.091 82.0172 405.804C82.4604 405.514 82.9775 405.369 83.5684 405.369C83.9093 405.369 84.2459 405.426 84.5783 405.54C84.9107 405.653 85.2132 405.838 85.486 406.094C85.7587 406.347 85.976 406.682 86.138 407.099C86.2999 407.517 86.3809 408.031 86.3809 408.642V409.068H81.3354V408.199H85.3581C85.3581 407.83 85.2843 407.5 85.1365 407.21C84.9917 406.92 84.7843 406.692 84.5144 406.524C84.2473 406.357 83.932 406.273 83.5684 406.273C83.1678 406.273 82.8212 406.372 82.5286 406.571C82.2388 406.767 82.0158 407.023 81.8596 407.338C81.7033 407.653 81.6252 407.991 81.6252 408.352V408.932C81.6252 409.426 81.7104 409.845 81.8809 410.189C82.0542 410.53 82.2942 410.79 82.601 410.969C82.9078 411.145 83.2644 411.233 83.6706 411.233C83.9348 411.233 84.1735 411.196 84.3865 411.122C84.6025 411.045 84.7885 410.932 84.9448 410.781C85.101 410.628 85.2218 410.437 85.307 410.21L86.2786 410.483C86.1763 410.812 86.0044 411.102 85.763 411.352C85.5215 411.599 85.2232 411.793 84.8681 411.932C84.513 412.068 84.1138 412.136 83.6706 412.136ZM88.9164 408.062V412H87.9107V405.455H88.8823V406.477H88.9675C89.1209 406.145 89.3539 405.878 89.6664 405.676C89.9789 405.472 90.3823 405.369 90.8766 405.369C91.3198 405.369 91.7076 405.46 92.04 405.642C92.3723 405.821 92.6309 406.094 92.8155 406.46C93.0002 406.824 93.0925 407.284 93.0925 407.841V412H92.0868V407.909C92.0868 407.395 91.9533 406.994 91.6863 406.707C91.4192 406.418 91.0527 406.273 90.5868 406.273C90.2658 406.273 89.9789 406.342 89.726 406.482C89.476 406.621 89.2786 406.824 89.1337 407.091C88.9888 407.358 88.9164 407.682 88.9164 408.062ZM97.7768 405.455V406.307H94.3848V405.455H97.7768ZM95.3734 403.886H96.3791V410.125C96.3791 410.409 96.4203 410.622 96.5027 410.764C96.5879 410.903 96.6958 410.997 96.8265 411.045C96.96 411.091 97.1007 411.114 97.2484 411.114C97.3592 411.114 97.4501 411.108 97.5211 411.097C97.5922 411.082 97.649 411.071 97.6916 411.062L97.8961 411.966C97.8279 411.991 97.7328 412.017 97.6106 412.043C97.4885 412.071 97.3336 412.085 97.1461 412.085C96.862 412.085 96.5836 412.024 96.3109 411.902C96.041 411.78 95.8166 411.594 95.6376 411.344C95.4615 411.094 95.3734 410.778 95.3734 410.398V403.886ZM102.801 412V403.273H105.852C106.46 403.273 106.961 403.378 107.356 403.588C107.751 403.795 108.045 404.075 108.238 404.428C108.432 404.777 108.528 405.165 108.528 405.591C108.528 405.966 108.461 406.276 108.328 406.52C108.197 406.764 108.024 406.957 107.808 407.099C107.595 407.241 107.363 407.347 107.113 407.415V407.5C107.381 407.517 107.649 407.611 107.919 407.781C108.189 407.952 108.415 408.196 108.596 408.514C108.778 408.832 108.869 409.222 108.869 409.682C108.869 410.119 108.77 410.513 108.571 410.862C108.372 411.212 108.058 411.489 107.629 411.693C107.2 411.898 106.642 412 105.954 412H102.801ZM103.858 411.062H105.954C106.645 411.062 107.135 410.929 107.425 410.662C107.717 410.392 107.863 410.065 107.863 409.682C107.863 409.386 107.788 409.114 107.638 408.864C107.487 408.611 107.273 408.409 106.994 408.259C106.716 408.105 106.386 408.028 106.006 408.028H103.858V411.062ZM103.858 407.108H105.818C106.136 407.108 106.423 407.045 106.679 406.92C106.937 406.795 107.142 406.619 107.292 406.392C107.446 406.165 107.523 405.898 107.523 405.591C107.523 405.207 107.389 404.882 107.122 404.615C106.855 404.345 106.432 404.21 105.852 404.21H103.858V407.108ZM110.469 412V405.455H111.441V406.443H111.509C111.628 406.119 111.844 405.857 112.157 405.655C112.469 405.453 112.822 405.352 113.214 405.352C113.287 405.352 113.38 405.354 113.491 405.357C113.601 405.359 113.685 405.364 113.742 405.369V406.392C113.708 406.384 113.63 406.371 113.508 406.354C113.388 406.334 113.262 406.324 113.128 406.324C112.81 406.324 112.526 406.391 112.276 406.524C112.029 406.655 111.833 406.837 111.688 407.07C111.546 407.3 111.475 407.562 111.475 407.858V412H110.469ZM114.934 412V405.455H115.94V412H114.934ZM115.445 404.364C115.249 404.364 115.08 404.297 114.938 404.163C114.799 404.03 114.73 403.869 114.73 403.682C114.73 403.494 114.799 403.334 114.938 403.2C115.08 403.067 115.249 403 115.445 403C115.642 403 115.809 403.067 115.948 403.2C116.09 403.334 116.161 403.494 116.161 403.682C116.161 403.869 116.09 404.03 115.948 404.163C115.809 404.297 115.642 404.364 115.445 404.364ZM120.253 412.136C119.708 412.136 119.226 411.999 118.809 411.723C118.391 411.445 118.064 411.053 117.829 410.547C117.593 410.038 117.475 409.438 117.475 408.744C117.475 408.057 117.593 407.46 117.829 406.955C118.064 406.449 118.393 406.058 118.813 405.783C119.233 405.507 119.719 405.369 120.27 405.369C120.697 405.369 121.033 405.44 121.28 405.582C121.53 405.722 121.721 405.881 121.851 406.06C121.985 406.236 122.089 406.381 122.162 406.494H122.248V403.273H123.253V412H122.282V410.994H122.162C122.089 411.114 121.983 411.264 121.847 411.446C121.711 411.625 121.516 411.786 121.263 411.928C121.01 412.067 120.674 412.136 120.253 412.136ZM120.39 411.233C120.793 411.233 121.134 411.128 121.412 410.918C121.691 410.705 121.903 410.411 122.047 410.036C122.192 409.658 122.265 409.222 122.265 408.727C122.265 408.239 122.194 407.811 122.052 407.445C121.91 407.075 121.699 406.788 121.421 406.584C121.143 406.376 120.799 406.273 120.39 406.273C119.964 406.273 119.608 406.382 119.324 406.601C119.043 406.817 118.831 407.111 118.689 407.483C118.55 407.852 118.481 408.267 118.481 408.727C118.481 409.193 118.552 409.616 118.694 409.997C118.839 410.375 119.052 410.676 119.333 410.901C119.617 411.122 119.969 411.233 120.39 411.233ZM127.877 414.591C127.391 414.591 126.974 414.528 126.624 414.403C126.275 414.281 125.983 414.119 125.751 413.918C125.52 413.719 125.337 413.506 125.201 413.278L126.002 412.716C126.093 412.835 126.208 412.972 126.347 413.125C126.486 413.281 126.677 413.416 126.918 413.53C127.162 413.646 127.482 413.705 127.877 413.705C128.405 413.705 128.841 413.577 129.185 413.321C129.529 413.065 129.701 412.665 129.701 412.119V410.79H129.616C129.542 410.909 129.437 411.057 129.3 411.233C129.167 411.406 128.974 411.561 128.721 411.697C128.471 411.831 128.133 411.898 127.706 411.898C127.178 411.898 126.704 411.773 126.283 411.523C125.866 411.273 125.535 410.909 125.29 410.432C125.049 409.955 124.928 409.375 124.928 408.693C124.928 408.023 125.046 407.439 125.282 406.942C125.518 406.442 125.846 406.055 126.266 405.783C126.687 405.507 127.172 405.369 127.724 405.369C128.15 405.369 128.488 405.44 128.738 405.582C128.991 405.722 129.184 405.881 129.317 406.06C129.454 406.236 129.559 406.381 129.633 406.494H129.735V405.455H130.706V412.188C130.706 412.75 130.579 413.207 130.323 413.56C130.07 413.915 129.729 414.175 129.3 414.339C128.874 414.507 128.4 414.591 127.877 414.591ZM127.843 410.994C128.246 410.994 128.587 410.902 128.866 410.717C129.144 410.533 129.356 410.267 129.501 409.92C129.645 409.574 129.718 409.159 129.718 408.676C129.718 408.205 129.647 407.788 129.505 407.428C129.363 407.067 129.153 406.784 128.874 406.58C128.596 406.375 128.252 406.273 127.843 406.273C127.417 406.273 127.062 406.381 126.778 406.597C126.496 406.812 126.285 407.102 126.143 407.466C126.003 407.83 125.934 408.233 125.934 408.676C125.934 409.131 126.005 409.533 126.147 409.882C126.292 410.229 126.505 410.501 126.786 410.7C127.07 410.896 127.422 410.994 127.843 410.994ZM135.292 412.136C134.661 412.136 134.117 411.997 133.66 411.719C133.205 411.438 132.854 411.045 132.607 410.543C132.363 410.037 132.241 409.449 132.241 408.778C132.241 408.108 132.363 407.517 132.607 407.006C132.854 406.491 133.198 406.091 133.638 405.804C134.081 405.514 134.599 405.369 135.189 405.369C135.53 405.369 135.867 405.426 136.199 405.54C136.532 405.653 136.834 405.838 137.107 406.094C137.38 406.347 137.597 406.682 137.759 407.099C137.921 407.517 138.002 408.031 138.002 408.642V409.068H132.956V408.199H136.979C136.979 407.83 136.905 407.5 136.758 407.21C136.613 406.92 136.405 406.692 136.135 406.524C135.868 406.357 135.553 406.273 135.189 406.273C134.789 406.273 134.442 406.372 134.15 406.571C133.86 406.767 133.637 407.023 133.481 407.338C133.324 407.653 133.246 407.991 133.246 408.352V408.932C133.246 409.426 133.331 409.845 133.502 410.189C133.675 410.53 133.915 410.79 134.222 410.969C134.529 411.145 134.885 411.233 135.292 411.233C135.556 411.233 135.795 411.196 136.008 411.122C136.224 411.045 136.41 410.932 136.566 410.781C136.722 410.628 136.843 410.437 136.928 410.21L137.9 410.483C137.797 410.812 137.626 411.102 137.384 411.352C137.143 411.599 136.844 411.793 136.489 411.932C136.134 412.068 135.735 412.136 135.292 412.136ZM70.8546 422.636C70.8546 421.562 70.9938 420.575 71.2722 419.675C71.5534 418.771 71.954 417.94 72.4739 417.182H73.3603C73.1557 417.463 72.964 417.81 72.785 418.222C72.6088 418.631 72.454 419.081 72.3205 419.572C72.187 420.061 72.0819 420.567 72.0051 421.089C71.9313 421.612 71.8944 422.128 71.8944 422.636C71.8944 423.312 71.9597 423.999 72.0904 424.695C72.2211 425.391 72.3972 426.037 72.6188 426.634C72.8404 427.23 73.0875 427.716 73.3603 428.091H72.4739C71.954 427.332 71.5534 426.503 71.2722 425.602C70.9938 424.699 70.8546 423.71 70.8546 422.636ZM79.7534 420.455C79.7022 420.023 79.4949 419.688 79.1312 419.449C78.7676 419.21 78.3216 419.091 77.7931 419.091C77.4068 419.091 77.0687 419.153 76.7789 419.278C76.492 419.403 76.2676 419.575 76.1056 419.794C75.9466 420.013 75.867 420.261 75.867 420.54C75.867 420.773 75.9224 420.973 76.0332 421.141C76.1468 421.305 76.2917 421.443 76.4679 421.554C76.644 421.662 76.8287 421.751 77.0218 421.822C77.215 421.891 77.3926 421.946 77.5545 421.989L78.4409 422.227C78.6681 422.287 78.921 422.369 79.1994 422.474C79.4806 422.58 79.7491 422.723 80.0048 422.905C80.2633 423.084 80.4764 423.314 80.644 423.595C80.8116 423.876 80.8954 424.222 80.8954 424.631C80.8954 425.102 80.7718 425.528 80.5247 425.909C80.2804 426.29 79.9224 426.592 79.4508 426.817C78.9821 427.041 78.4125 427.153 77.742 427.153C77.117 427.153 76.5758 427.053 76.1184 426.851C75.6639 426.649 75.3059 426.368 75.0446 426.007C74.786 425.646 74.6397 425.227 74.6056 424.75H75.6966C75.725 425.08 75.8358 425.352 76.0289 425.568C76.225 425.781 76.4721 425.94 76.7704 426.045C77.0716 426.148 77.3954 426.199 77.742 426.199C78.1454 426.199 78.5076 426.134 78.8287 426.003C79.1497 425.869 79.4039 425.685 79.5914 425.449C79.7789 425.21 79.8727 424.932 79.8727 424.614C79.8727 424.324 79.7917 424.088 79.6298 423.906C79.4679 423.724 79.2548 423.577 78.9906 423.463C78.7264 423.349 78.4409 423.25 78.1341 423.165L77.0602 422.858C76.3784 422.662 75.8386 422.382 75.4409 422.018C75.0431 421.655 74.8443 421.179 74.8443 420.591C74.8443 420.102 74.9764 419.676 75.2406 419.312C75.5076 418.946 75.8656 418.662 76.3145 418.46C76.7662 418.256 77.2704 418.153 77.8272 418.153C78.3897 418.153 78.8897 418.254 79.3272 418.456C79.7647 418.655 80.1113 418.928 80.367 419.274C80.6255 419.621 80.7619 420.014 80.7761 420.455H79.7534ZM85.1557 427.136C84.5421 427.136 84.0137 426.991 83.5705 426.702C83.1273 426.412 82.7864 426.013 82.5478 425.504C82.3091 424.996 82.1898 424.415 82.1898 423.761C82.1898 423.097 82.312 422.51 82.5563 422.001C82.8034 421.49 83.1472 421.091 83.5875 420.804C84.0307 420.514 84.5478 420.369 85.1387 420.369C85.5989 420.369 86.0137 420.455 86.383 420.625C86.7523 420.795 87.0549 421.034 87.2907 421.341C87.5265 421.648 87.6728 422.006 87.7296 422.415H86.7239C86.6472 422.116 86.4767 421.852 86.2125 421.622C85.9512 421.389 85.5989 421.273 85.1557 421.273C84.7637 421.273 84.4199 421.375 84.1245 421.58C83.8319 421.781 83.6032 422.067 83.4384 422.436C83.2765 422.803 83.1955 423.233 83.1955 423.727C83.1955 424.233 83.275 424.673 83.4341 425.048C83.5961 425.423 83.8233 425.714 84.1159 425.922C84.4114 426.129 84.758 426.233 85.1557 426.233C85.4171 426.233 85.6543 426.188 85.8674 426.097C86.0804 426.006 86.2608 425.875 86.4086 425.705C86.5563 425.534 86.6614 425.33 86.7239 425.091H87.7296C87.6728 425.477 87.5321 425.825 87.3077 426.135C87.0861 426.442 86.7921 426.686 86.4256 426.868C86.062 427.047 85.6387 427.136 85.1557 427.136ZM90.2054 423.062V427H89.1998V418.273H90.2054V421.477H90.2907C90.4441 421.139 90.6742 420.871 90.981 420.672C91.2907 420.47 91.7026 420.369 92.2168 420.369C92.6628 420.369 93.0534 420.459 93.3887 420.638C93.7239 420.814 93.9838 421.085 94.1685 421.452C94.356 421.815 94.4498 422.278 94.4498 422.841V427H93.4441V422.909C93.4441 422.389 93.3091 421.987 93.0392 421.703C92.7722 421.416 92.4015 421.273 91.927 421.273C91.5975 421.273 91.302 421.342 91.0407 421.482C90.7821 421.621 90.5776 421.824 90.427 422.091C90.2793 422.358 90.2054 422.682 90.2054 423.062ZM99.0339 427.136C98.4032 427.136 97.8592 426.997 97.4018 426.719C96.9473 426.438 96.5964 426.045 96.3493 425.543C96.1049 425.037 95.9828 424.449 95.9828 423.778C95.9828 423.108 96.1049 422.517 96.3493 422.006C96.5964 421.491 96.9402 421.091 97.3805 420.804C97.8237 420.514 98.3407 420.369 98.9316 420.369C99.2725 420.369 99.6092 420.426 99.9416 420.54C100.274 420.653 100.577 420.838 100.849 421.094C101.122 421.347 101.339 421.682 101.501 422.099C101.663 422.517 101.744 423.031 101.744 423.642V424.068H96.6987V423.199H100.721C100.721 422.83 100.648 422.5 100.5 422.21C100.355 421.92 100.148 421.692 99.8777 421.524C99.6106 421.357 99.2953 421.273 98.9316 421.273C98.5311 421.273 98.1845 421.372 97.8919 421.571C97.6021 421.767 97.3791 422.023 97.2228 422.338C97.0666 422.653 96.9885 422.991 96.9885 423.352V423.932C96.9885 424.426 97.0737 424.845 97.2441 425.189C97.4174 425.53 97.6575 425.79 97.9643 425.969C98.2711 426.145 98.6277 426.233 99.0339 426.233C99.2981 426.233 99.5368 426.196 99.7498 426.122C99.9657 426.045 100.152 425.932 100.308 425.781C100.464 425.628 100.585 425.437 100.67 425.21L101.642 425.483C101.54 425.812 101.368 426.102 101.126 426.352C100.885 426.599 100.586 426.793 100.231 426.932C99.8762 427.068 99.4771 427.136 99.0339 427.136ZM105.746 427.136C105.2 427.136 104.719 426.999 104.301 426.723C103.883 426.445 103.557 426.053 103.321 425.547C103.085 425.038 102.967 424.438 102.967 423.744C102.967 423.057 103.085 422.46 103.321 421.955C103.557 421.449 103.885 421.058 104.305 420.783C104.726 420.507 105.211 420.369 105.763 420.369C106.189 420.369 106.525 420.44 106.773 420.582C107.023 420.722 107.213 420.881 107.344 421.06C107.477 421.236 107.581 421.381 107.655 421.494H107.74V418.273H108.746V427H107.774V425.994H107.655C107.581 426.114 107.476 426.264 107.339 426.446C107.203 426.625 107.008 426.786 106.756 426.928C106.503 427.067 106.166 427.136 105.746 427.136ZM105.882 426.233C106.285 426.233 106.626 426.128 106.905 425.918C107.183 425.705 107.395 425.411 107.54 425.036C107.684 424.658 107.757 424.222 107.757 423.727C107.757 423.239 107.686 422.811 107.544 422.445C107.402 422.075 107.192 421.788 106.913 421.584C106.635 421.376 106.291 421.273 105.882 421.273C105.456 421.273 105.101 421.382 104.817 421.601C104.535 421.817 104.324 422.111 104.182 422.483C104.042 422.852 103.973 423.267 103.973 423.727C103.973 424.193 104.044 424.616 104.186 424.997C104.331 425.375 104.544 425.676 104.825 425.901C105.109 426.122 105.461 426.233 105.882 426.233ZM114.852 424.324V420.455H115.858V427H114.852V425.892H114.784C114.631 426.224 114.392 426.507 114.068 426.74C113.744 426.97 113.335 427.085 112.841 427.085C112.432 427.085 112.068 426.996 111.75 426.817C111.432 426.635 111.182 426.362 111 425.999C110.818 425.632 110.727 425.17 110.727 424.614V420.455H111.733V424.545C111.733 425.023 111.866 425.403 112.133 425.688C112.403 425.972 112.747 426.114 113.165 426.114C113.415 426.114 113.669 426.05 113.927 425.922C114.189 425.794 114.407 425.598 114.584 425.334C114.763 425.07 114.852 424.733 114.852 424.324ZM118.705 418.273V427H117.7V418.273H118.705ZM123.292 427.136C122.661 427.136 122.117 426.997 121.66 426.719C121.205 426.438 120.854 426.045 120.607 425.543C120.363 425.037 120.241 424.449 120.241 423.778C120.241 423.108 120.363 422.517 120.607 422.006C120.854 421.491 121.198 421.091 121.638 420.804C122.081 420.514 122.599 420.369 123.189 420.369C123.53 420.369 123.867 420.426 124.199 420.54C124.532 420.653 124.834 420.838 125.107 421.094C125.38 421.347 125.597 421.682 125.759 422.099C125.921 422.517 126.002 423.031 126.002 423.642V424.068H120.956V423.199H124.979C124.979 422.83 124.905 422.5 124.758 422.21C124.613 421.92 124.405 421.692 124.135 421.524C123.868 421.357 123.553 421.273 123.189 421.273C122.789 421.273 122.442 421.372 122.15 421.571C121.86 421.767 121.637 422.023 121.481 422.338C121.324 422.653 121.246 422.991 121.246 423.352V423.932C121.246 424.426 121.331 424.845 121.502 425.189C121.675 425.53 121.915 425.79 122.222 425.969C122.529 426.145 122.885 426.233 123.292 426.233C123.556 426.233 123.795 426.196 124.008 426.122C124.224 426.045 124.41 425.932 124.566 425.781C124.722 425.628 124.843 425.437 124.928 425.21L125.9 425.483C125.797 425.812 125.626 426.102 125.384 426.352C125.143 426.599 124.844 426.793 124.489 426.932C124.134 427.068 123.735 427.136 123.292 427.136ZM127.532 427V420.455H128.503V421.443H128.572C128.691 421.119 128.907 420.857 129.219 420.655C129.532 420.453 129.884 420.352 130.276 420.352C130.35 420.352 130.442 420.354 130.553 420.357C130.664 420.359 130.748 420.364 130.805 420.369V421.392C130.77 421.384 130.692 421.371 130.57 421.354C130.451 421.334 130.324 421.324 130.191 421.324C129.873 421.324 129.589 421.391 129.339 421.524C129.091 421.655 128.895 421.837 128.751 422.07C128.608 422.3 128.537 422.562 128.537 422.858V427H127.532ZM134.144 423.318C134.144 424.392 134.004 425.381 133.722 426.284C133.444 427.185 133.045 428.014 132.525 428.773H131.639C131.843 428.491 132.034 428.145 132.21 427.733C132.389 427.324 132.545 426.875 132.678 426.386C132.812 425.895 132.916 425.388 132.99 424.865C133.066 424.339 133.105 423.824 133.105 423.318C133.105 422.642 133.039 421.956 132.909 421.26C132.778 420.564 132.602 419.918 132.38 419.321C132.159 418.724 131.911 418.239 131.639 417.864H132.525C133.045 418.622 133.444 419.453 133.722 420.357C134.004 421.257 134.144 422.244 134.144 423.318Z" fill="black"/>
<path d="M289.315 282V273.273H292.263C292.948 273.273 293.508 273.396 293.942 273.643C294.38 273.888 294.704 274.219 294.914 274.636C295.124 275.054 295.229 275.52 295.229 276.034C295.229 276.548 295.124 277.016 294.914 277.436C294.707 277.857 294.386 278.192 293.951 278.442C293.516 278.689 292.96 278.812 292.281 278.812H290.167V277.875H292.246C292.715 277.875 293.092 277.794 293.376 277.632C293.66 277.47 293.866 277.251 293.994 276.976C294.124 276.697 294.19 276.384 294.19 276.034C294.19 275.685 294.124 275.372 293.994 275.097C293.866 274.821 293.658 274.605 293.371 274.449C293.085 274.29 292.704 274.21 292.229 274.21H290.371V282H289.315ZM298.722 282.153C298.307 282.153 297.93 282.075 297.592 281.919C297.254 281.76 296.986 281.531 296.787 281.233C296.588 280.932 296.489 280.568 296.489 280.142C296.489 279.767 296.563 279.463 296.71 279.23C296.858 278.994 297.055 278.81 297.303 278.676C297.55 278.543 297.822 278.443 298.121 278.378C298.422 278.31 298.724 278.256 299.028 278.216C299.426 278.165 299.749 278.126 299.996 278.101C300.246 278.072 300.428 278.026 300.541 277.96C300.658 277.895 300.716 277.781 300.716 277.619V277.585C300.716 277.165 300.601 276.838 300.371 276.605C300.143 276.372 299.798 276.256 299.335 276.256C298.855 276.256 298.479 276.361 298.206 276.571C297.933 276.781 297.741 277.006 297.631 277.244L296.676 276.903C296.847 276.506 297.074 276.196 297.358 275.974C297.645 275.75 297.957 275.594 298.295 275.506C298.636 275.415 298.972 275.369 299.301 275.369C299.511 275.369 299.753 275.395 300.026 275.446C300.301 275.494 300.567 275.595 300.822 275.749C301.081 275.902 301.295 276.134 301.466 276.443C301.636 276.753 301.722 277.168 301.722 277.688V282H300.716V281.114H300.665C300.597 281.256 300.483 281.408 300.324 281.57C300.165 281.732 299.953 281.869 299.689 281.983C299.425 282.097 299.102 282.153 298.722 282.153ZM298.875 281.25C299.273 281.25 299.608 281.172 299.881 281.016C300.156 280.859 300.364 280.658 300.503 280.411C300.645 280.163 300.716 279.903 300.716 279.631V278.71C300.673 278.761 300.58 278.808 300.435 278.851C300.293 278.891 300.128 278.926 299.94 278.957C299.756 278.986 299.575 279.011 299.399 279.034C299.226 279.054 299.085 279.071 298.977 279.085C298.716 279.119 298.472 279.175 298.244 279.251C298.02 279.325 297.838 279.437 297.699 279.588C297.563 279.736 297.494 279.937 297.494 280.193C297.494 280.543 297.624 280.807 297.882 280.986C298.143 281.162 298.474 281.25 298.875 281.25ZM303.557 282V275.455H304.529V276.443H304.597C304.716 276.119 304.932 275.857 305.245 275.655C305.557 275.453 305.909 275.352 306.301 275.352C306.375 275.352 306.468 275.354 306.578 275.357C306.689 275.359 306.773 275.364 306.83 275.369V276.392C306.796 276.384 306.718 276.371 306.596 276.354C306.476 276.334 306.35 276.324 306.216 276.324C305.898 276.324 305.614 276.391 305.364 276.524C305.117 276.655 304.921 276.837 304.776 277.07C304.634 277.3 304.563 277.562 304.563 277.858V282H303.557ZM309.948 282.153C309.533 282.153 309.157 282.075 308.819 281.919C308.481 281.76 308.212 281.531 308.013 281.233C307.815 280.932 307.715 280.568 307.715 280.142C307.715 279.767 307.789 279.463 307.937 279.23C308.085 278.994 308.282 278.81 308.529 278.676C308.776 278.543 309.049 278.443 309.347 278.378C309.648 278.31 309.951 278.256 310.255 278.216C310.653 278.165 310.975 278.126 311.222 278.101C311.472 278.072 311.654 278.026 311.768 277.96C311.884 277.895 311.942 277.781 311.942 277.619V277.585C311.942 277.165 311.827 276.838 311.597 276.605C311.37 276.372 311.025 276.256 310.562 276.256C310.082 276.256 309.705 276.361 309.433 276.571C309.16 276.781 308.968 277.006 308.857 277.244L307.903 276.903C308.073 276.506 308.3 276.196 308.585 275.974C308.871 275.75 309.184 275.594 309.522 275.506C309.863 275.415 310.198 275.369 310.528 275.369C310.738 275.369 310.979 275.395 311.252 275.446C311.528 275.494 311.793 275.595 312.049 275.749C312.308 275.902 312.522 276.134 312.692 276.443C312.863 276.753 312.948 277.168 312.948 277.688V282H311.942V281.114H311.891C311.823 281.256 311.71 281.408 311.55 281.57C311.391 281.732 311.18 281.869 310.915 281.983C310.651 282.097 310.329 282.153 309.948 282.153ZM310.102 281.25C310.499 281.25 310.835 281.172 311.107 281.016C311.383 280.859 311.59 280.658 311.729 280.411C311.871 280.163 311.942 279.903 311.942 279.631V278.71C311.9 278.761 311.806 278.808 311.661 278.851C311.519 278.891 311.354 278.926 311.167 278.957C310.982 278.986 310.802 279.011 310.626 279.034C310.452 279.054 310.312 279.071 310.204 279.085C309.942 279.119 309.698 279.175 309.471 279.251C309.246 279.325 309.065 279.437 308.925 279.588C308.789 279.736 308.721 279.937 308.721 280.193C308.721 280.543 308.85 280.807 309.109 280.986C309.37 281.162 309.701 281.25 310.102 281.25ZM314.784 282V275.455H315.755V276.477H315.841C315.977 276.128 316.197 275.857 316.501 275.663C316.805 275.467 317.17 275.369 317.596 275.369C318.028 275.369 318.387 275.467 318.674 275.663C318.964 275.857 319.19 276.128 319.352 276.477H319.42C319.588 276.139 319.839 275.871 320.174 275.672C320.51 275.47 320.912 275.369 321.38 275.369C321.966 275.369 322.444 275.553 322.816 275.919C323.189 276.283 323.375 276.849 323.375 277.619V282H322.369V277.619C322.369 277.136 322.237 276.791 321.973 276.584C321.708 276.376 321.397 276.273 321.039 276.273C320.579 276.273 320.223 276.412 319.97 276.69C319.717 276.966 319.591 277.315 319.591 277.739V282H318.568V277.517C318.568 277.145 318.447 276.845 318.206 276.618C317.964 276.388 317.653 276.273 317.272 276.273C317.011 276.273 316.767 276.342 316.539 276.482C316.315 276.621 316.133 276.814 315.994 277.061C315.858 277.305 315.789 277.588 315.789 277.909V282H314.784ZM327.958 282.136C327.327 282.136 326.783 281.997 326.326 281.719C325.871 281.438 325.52 281.045 325.273 280.543C325.029 280.037 324.907 279.449 324.907 278.778C324.907 278.108 325.029 277.517 325.273 277.006C325.52 276.491 325.864 276.091 326.304 275.804C326.748 275.514 327.265 275.369 327.855 275.369C328.196 275.369 328.533 275.426 328.865 275.54C329.198 275.653 329.5 275.838 329.773 276.094C330.046 276.347 330.263 276.682 330.425 277.099C330.587 277.517 330.668 278.031 330.668 278.642V279.068H325.623V278.199H329.645C329.645 277.83 329.571 277.5 329.424 277.21C329.279 276.92 329.071 276.692 328.801 276.524C328.534 276.357 328.219 276.273 327.855 276.273C327.455 276.273 327.108 276.372 326.816 276.571C326.526 276.767 326.303 277.023 326.147 277.338C325.99 277.653 325.912 277.991 325.912 278.352V278.932C325.912 279.426 325.998 279.845 326.168 280.189C326.341 280.53 326.581 280.79 326.888 280.969C327.195 281.145 327.551 281.233 327.958 281.233C328.222 281.233 328.461 281.196 328.674 281.122C328.89 281.045 329.076 280.932 329.232 280.781C329.388 280.628 329.509 280.437 329.594 280.21L330.566 280.483C330.463 280.812 330.292 281.102 330.05 281.352C329.809 281.599 329.51 281.793 329.155 281.932C328.8 282.068 328.401 282.136 327.958 282.136ZM335.044 275.455V276.307H331.652V275.455H335.044ZM332.641 273.886H333.647V280.125C333.647 280.409 333.688 280.622 333.77 280.764C333.855 280.903 333.963 280.997 334.094 281.045C334.228 281.091 334.368 281.114 334.516 281.114C334.627 281.114 334.718 281.108 334.789 281.097C334.86 281.082 334.917 281.071 334.959 281.062L335.164 281.966C335.096 281.991 335 282.017 334.878 282.043C334.756 282.071 334.601 282.085 334.414 282.085C334.13 282.085 333.851 282.024 333.578 281.902C333.309 281.78 333.084 281.594 332.905 281.344C332.729 281.094 332.641 280.778 332.641 280.398V273.886ZM339.231 282.136C338.6 282.136 338.056 281.997 337.599 281.719C337.145 281.438 336.794 281.045 336.547 280.543C336.302 280.037 336.18 279.449 336.18 278.778C336.18 278.108 336.302 277.517 336.547 277.006C336.794 276.491 337.137 276.091 337.578 275.804C338.021 275.514 338.538 275.369 339.129 275.369C339.47 275.369 339.806 275.426 340.139 275.54C340.471 275.653 340.774 275.838 341.047 276.094C341.319 276.347 341.537 276.682 341.699 277.099C341.86 277.517 341.941 278.031 341.941 278.642V279.068H336.896V278.199H340.919C340.919 277.83 340.845 277.5 340.697 277.21C340.552 276.92 340.345 276.692 340.075 276.524C339.808 276.357 339.493 276.273 339.129 276.273C338.728 276.273 338.382 276.372 338.089 276.571C337.799 276.767 337.576 277.023 337.42 277.338C337.264 277.653 337.186 277.991 337.186 278.352V278.932C337.186 279.426 337.271 279.845 337.441 280.189C337.615 280.53 337.855 280.79 338.162 280.969C338.468 281.145 338.825 281.233 339.231 281.233C339.495 281.233 339.734 281.196 339.947 281.122C340.163 281.045 340.349 280.932 340.505 280.781C340.662 280.628 340.782 280.437 340.868 280.21L341.839 280.483C341.737 280.812 341.565 281.102 341.324 281.352C341.082 281.599 340.784 281.793 340.429 281.932C340.074 282.068 339.674 282.136 339.231 282.136ZM343.471 282V275.455H344.443V276.443H344.511C344.63 276.119 344.846 275.857 345.159 275.655C345.471 275.453 345.824 275.352 346.216 275.352C346.289 275.352 346.382 275.354 346.493 275.357C346.603 275.359 346.687 275.364 346.744 275.369V276.392C346.71 276.384 346.632 276.371 346.51 276.354C346.39 276.334 346.264 276.324 346.13 276.324C345.812 276.324 345.528 276.391 345.278 276.524C345.031 276.655 344.835 276.837 344.69 277.07C344.548 277.3 344.477 277.562 344.477 277.858V282H343.471ZM356.22 275.455C356.169 275.023 355.962 274.688 355.598 274.449C355.234 274.21 354.788 274.091 354.26 274.091C353.874 274.091 353.536 274.153 353.246 274.278C352.959 274.403 352.734 274.575 352.572 274.794C352.413 275.013 352.334 275.261 352.334 275.54C352.334 275.773 352.389 275.973 352.5 276.141C352.614 276.305 352.759 276.443 352.935 276.554C353.111 276.662 353.295 276.751 353.489 276.822C353.682 276.891 353.859 276.946 354.021 276.989L354.908 277.227C355.135 277.287 355.388 277.369 355.666 277.474C355.947 277.58 356.216 277.723 356.472 277.905C356.73 278.084 356.943 278.314 357.111 278.595C357.278 278.876 357.362 279.222 357.362 279.631C357.362 280.102 357.239 280.528 356.991 280.909C356.747 281.29 356.389 281.592 355.918 281.817C355.449 282.041 354.879 282.153 354.209 282.153C353.584 282.153 353.043 282.053 352.585 281.851C352.131 281.649 351.773 281.368 351.511 281.007C351.253 280.646 351.107 280.227 351.072 279.75H352.163C352.192 280.08 352.303 280.352 352.496 280.568C352.692 280.781 352.939 280.94 353.237 281.045C353.538 281.148 353.862 281.199 354.209 281.199C354.612 281.199 354.974 281.134 355.295 281.003C355.616 280.869 355.871 280.685 356.058 280.449C356.246 280.21 356.339 279.932 356.339 279.614C356.339 279.324 356.259 279.088 356.097 278.906C355.935 278.724 355.722 278.577 355.457 278.463C355.193 278.349 354.908 278.25 354.601 278.165L353.527 277.858C352.845 277.662 352.305 277.382 351.908 277.018C351.51 276.655 351.311 276.179 351.311 275.591C351.311 275.102 351.443 274.676 351.707 274.312C351.974 273.946 352.332 273.662 352.781 273.46C353.233 273.256 353.737 273.153 354.294 273.153C354.857 273.153 355.357 273.254 355.794 273.456C356.232 273.655 356.578 273.928 356.834 274.274C357.092 274.621 357.229 275.014 357.243 275.455H356.22ZM361.81 275.455V276.307H358.418V275.455H361.81ZM359.407 273.886H360.412V280.125C360.412 280.409 360.453 280.622 360.536 280.764C360.621 280.903 360.729 280.997 360.86 281.045C360.993 281.091 361.134 281.114 361.282 281.114C361.392 281.114 361.483 281.108 361.554 281.097C361.625 281.082 361.682 281.071 361.725 281.062L361.929 281.966C361.861 281.991 361.766 282.017 361.644 282.043C361.522 282.071 361.367 282.085 361.179 282.085C360.895 282.085 360.617 282.024 360.344 281.902C360.074 281.78 359.85 281.594 359.671 281.344C359.495 281.094 359.407 280.778 359.407 280.398V273.886ZM365.912 282.136C365.321 282.136 364.802 281.996 364.356 281.714C363.913 281.433 363.566 281.04 363.316 280.534C363.069 280.028 362.946 279.437 362.946 278.761C362.946 278.08 363.069 277.484 363.316 276.976C363.566 276.467 363.913 276.072 364.356 275.791C364.802 275.51 365.321 275.369 365.912 275.369C366.502 275.369 367.02 275.51 367.463 275.791C367.909 276.072 368.255 276.467 368.502 276.976C368.752 277.484 368.877 278.08 368.877 278.761C368.877 279.437 368.752 280.028 368.502 280.534C368.255 281.04 367.909 281.433 367.463 281.714C367.02 281.996 366.502 282.136 365.912 282.136ZM365.912 281.233C366.36 281.233 366.73 281.118 367.02 280.888C367.309 280.658 367.524 280.355 367.663 279.98C367.802 279.605 367.872 279.199 367.872 278.761C367.872 278.324 367.802 277.916 367.663 277.538C367.524 277.161 367.309 276.855 367.02 276.622C366.73 276.389 366.36 276.273 365.912 276.273C365.463 276.273 365.093 276.389 364.804 276.622C364.514 276.855 364.299 277.161 364.16 277.538C364.021 277.916 363.951 278.324 363.951 278.761C363.951 279.199 364.021 279.605 364.16 279.98C364.299 280.355 364.514 280.658 364.804 280.888C365.093 281.118 365.463 281.233 365.912 281.233ZM370.413 282V275.455H371.384V276.443H371.452C371.572 276.119 371.788 275.857 372.1 275.655C372.413 275.453 372.765 275.352 373.157 275.352C373.231 275.352 373.323 275.354 373.434 275.357C373.545 275.359 373.629 275.364 373.685 275.369V276.392C373.651 276.384 373.573 276.371 373.451 276.354C373.332 276.334 373.205 276.324 373.072 276.324C372.754 276.324 372.469 276.391 372.219 276.524C371.972 276.655 371.776 276.837 371.631 277.07C371.489 277.3 371.418 277.562 371.418 277.858V282H370.413ZM377.423 282.136C376.792 282.136 376.248 281.997 375.79 281.719C375.336 281.438 374.985 281.045 374.738 280.543C374.494 280.037 374.371 279.449 374.371 278.778C374.371 278.108 374.494 277.517 374.738 277.006C374.985 276.491 375.329 276.091 375.769 275.804C376.212 275.514 376.729 275.369 377.32 275.369C377.661 275.369 377.998 275.426 378.33 275.54C378.663 275.653 378.965 275.838 379.238 276.094C379.511 276.347 379.728 276.682 379.89 277.099C380.052 277.517 380.133 278.031 380.133 278.642V279.068H375.087V278.199H379.11C379.11 277.83 379.036 277.5 378.888 277.21C378.744 276.92 378.536 276.692 378.266 276.524C377.999 276.357 377.684 276.273 377.32 276.273C376.92 276.273 376.573 276.372 376.281 276.571C375.991 276.767 375.768 277.023 375.612 277.338C375.455 277.653 375.377 277.991 375.377 278.352V278.932C375.377 279.426 375.462 279.845 375.633 280.189C375.806 280.53 376.046 280.79 376.353 280.969C376.66 281.145 377.016 281.233 377.423 281.233C377.687 281.233 377.925 281.196 378.138 281.122C378.354 281.045 378.54 280.932 378.697 280.781C378.853 280.628 378.974 280.437 379.059 280.21L380.031 280.483C379.928 280.812 379.756 281.102 379.515 281.352C379.273 281.599 378.975 281.793 378.62 281.932C378.265 282.068 377.866 282.136 377.423 282.136ZM303.405 292.636C303.405 291.562 303.545 290.575 303.823 289.675C304.104 288.771 304.505 287.94 305.025 287.182H305.911C305.706 287.463 305.515 287.81 305.336 288.222C305.16 288.631 305.005 289.081 304.871 289.572C304.738 290.061 304.633 290.567 304.556 291.089C304.482 291.612 304.445 292.128 304.445 292.636C304.445 293.312 304.51 293.999 304.641 294.695C304.772 295.391 304.948 296.037 305.17 296.634C305.391 297.23 305.638 297.716 305.911 298.091H305.025C304.505 297.332 304.104 296.503 303.823 295.602C303.545 294.699 303.405 293.71 303.405 292.636ZM312.304 290.455C312.253 290.023 312.046 289.688 311.682 289.449C311.318 289.21 310.872 289.091 310.344 289.091C309.958 289.091 309.619 289.153 309.33 289.278C309.043 289.403 308.818 289.575 308.656 289.794C308.497 290.013 308.418 290.261 308.418 290.54C308.418 290.773 308.473 290.973 308.584 291.141C308.698 291.305 308.843 291.443 309.019 291.554C309.195 291.662 309.379 291.751 309.573 291.822C309.766 291.891 309.943 291.946 310.105 291.989L310.992 292.227C311.219 292.287 311.472 292.369 311.75 292.474C312.031 292.58 312.3 292.723 312.556 292.905C312.814 293.084 313.027 293.314 313.195 293.595C313.362 293.876 313.446 294.222 313.446 294.631C313.446 295.102 313.323 295.528 313.075 295.909C312.831 296.29 312.473 296.592 312.002 296.817C311.533 297.041 310.963 297.153 310.293 297.153C309.668 297.153 309.127 297.053 308.669 296.851C308.215 296.649 307.857 296.368 307.595 296.007C307.337 295.646 307.191 295.227 307.156 294.75H308.247C308.276 295.08 308.387 295.352 308.58 295.568C308.776 295.781 309.023 295.94 309.321 296.045C309.622 296.148 309.946 296.199 310.293 296.199C310.696 296.199 311.058 296.134 311.379 296.003C311.7 295.869 311.955 295.685 312.142 295.449C312.33 295.21 312.423 294.932 312.423 294.614C312.423 294.324 312.343 294.088 312.181 293.906C312.019 293.724 311.806 293.577 311.541 293.463C311.277 293.349 310.992 293.25 310.685 293.165L309.611 292.858C308.929 292.662 308.389 292.382 307.992 292.018C307.594 291.655 307.395 291.179 307.395 290.591C307.395 290.102 307.527 289.676 307.791 289.312C308.058 288.946 308.416 288.662 308.865 288.46C309.317 288.256 309.821 288.153 310.378 288.153C310.941 288.153 311.441 288.254 311.878 288.456C312.316 288.655 312.662 288.928 312.918 289.274C313.176 289.621 313.313 290.014 313.327 290.455H312.304ZM317.894 290.455V291.307H314.502V290.455H317.894ZM315.491 288.886H316.496V295.125C316.496 295.409 316.537 295.622 316.62 295.764C316.705 295.903 316.813 295.997 316.944 296.045C317.077 296.091 317.218 296.114 317.366 296.114C317.476 296.114 317.567 296.108 317.638 296.097C317.709 296.082 317.766 296.071 317.809 296.062L318.013 296.966C317.945 296.991 317.85 297.017 317.728 297.043C317.606 297.071 317.451 297.085 317.263 297.085C316.979 297.085 316.701 297.024 316.428 296.902C316.158 296.78 315.934 296.594 315.755 296.344C315.579 296.094 315.491 295.778 315.491 295.398V288.886ZM321.996 297.136C321.405 297.136 320.886 296.996 320.44 296.714C319.997 296.433 319.65 296.04 319.4 295.534C319.153 295.028 319.03 294.437 319.03 293.761C319.03 293.08 319.153 292.484 319.4 291.976C319.65 291.467 319.997 291.072 320.44 290.791C320.886 290.51 321.405 290.369 321.996 290.369C322.586 290.369 323.104 290.51 323.547 290.791C323.993 291.072 324.339 291.467 324.586 291.976C324.836 292.484 324.961 293.08 324.961 293.761C324.961 294.437 324.836 295.028 324.586 295.534C324.339 296.04 323.993 296.433 323.547 296.714C323.104 296.996 322.586 297.136 321.996 297.136ZM321.996 296.233C322.444 296.233 322.814 296.118 323.104 295.888C323.393 295.658 323.608 295.355 323.747 294.98C323.886 294.605 323.956 294.199 323.956 293.761C323.956 293.324 323.886 292.916 323.747 292.538C323.608 292.161 323.393 291.855 323.104 291.622C322.814 291.389 322.444 291.273 321.996 291.273C321.547 291.273 321.177 291.389 320.888 291.622C320.598 291.855 320.383 292.161 320.244 292.538C320.105 292.916 320.035 293.324 320.035 293.761C320.035 294.199 320.105 294.605 320.244 294.98C320.383 295.355 320.598 295.658 320.888 295.888C321.177 296.118 321.547 296.233 321.996 296.233ZM326.497 297V290.455H327.468V291.443H327.536C327.656 291.119 327.872 290.857 328.184 290.655C328.497 290.453 328.849 290.352 329.241 290.352C329.315 290.352 329.407 290.354 329.518 290.357C329.629 290.359 329.713 290.364 329.769 290.369V291.392C329.735 291.384 329.657 291.371 329.535 291.354C329.416 291.334 329.289 291.324 329.156 291.324C328.838 291.324 328.553 291.391 328.303 291.524C328.056 291.655 327.86 291.837 327.715 292.07C327.573 292.3 327.502 292.562 327.502 292.858V297H326.497ZM333.507 297.136C332.876 297.136 332.332 296.997 331.874 296.719C331.42 296.438 331.069 296.045 330.822 295.543C330.578 295.037 330.455 294.449 330.455 293.778C330.455 293.108 330.578 292.517 330.822 292.006C331.069 291.491 331.413 291.091 331.853 290.804C332.296 290.514 332.813 290.369 333.404 290.369C333.745 290.369 334.082 290.426 334.414 290.54C334.747 290.653 335.049 290.838 335.322 291.094C335.595 291.347 335.812 291.682 335.974 292.099C336.136 292.517 336.217 293.031 336.217 293.642V294.068H331.171V293.199H335.194C335.194 292.83 335.12 292.5 334.972 292.21C334.828 291.92 334.62 291.692 334.35 291.524C334.083 291.357 333.768 291.273 333.404 291.273C333.004 291.273 332.657 291.372 332.365 291.571C332.075 291.767 331.852 292.023 331.695 292.338C331.539 292.653 331.461 292.991 331.461 293.352V293.932C331.461 294.426 331.546 294.845 331.717 295.189C331.89 295.53 332.13 295.79 332.437 295.969C332.744 296.145 333.1 296.233 333.507 296.233C333.771 296.233 334.009 296.196 334.222 296.122C334.438 296.045 334.624 295.932 334.781 295.781C334.937 295.628 335.058 295.437 335.143 295.21L336.115 295.483C336.012 295.812 335.84 296.102 335.599 296.352C335.357 296.599 335.059 296.793 334.704 296.932C334.349 297.068 333.95 297.136 333.507 297.136ZM341.616 297H340.508L343.713 288.273H344.803L348.008 297H346.9L344.292 289.653H344.224L341.616 297ZM342.025 293.591H346.491V294.528H342.025V293.591ZM353.356 294.324V290.455H354.362V297H353.356V295.892H353.288C353.134 296.224 352.896 296.507 352.572 296.74C352.248 296.97 351.839 297.085 351.345 297.085C350.936 297.085 350.572 296.996 350.254 296.817C349.936 296.635 349.686 296.362 349.504 295.999C349.322 295.632 349.231 295.17 349.231 294.614V290.455H350.237V294.545C350.237 295.023 350.37 295.403 350.637 295.688C350.907 295.972 351.251 296.114 351.669 296.114C351.919 296.114 352.173 296.05 352.431 295.922C352.693 295.794 352.911 295.598 353.088 295.334C353.267 295.07 353.356 294.733 353.356 294.324ZM359.05 290.455V291.307H355.658V290.455H359.05ZM356.647 288.886H357.653V295.125C357.653 295.409 357.694 295.622 357.776 295.764C357.861 295.903 357.969 295.997 358.1 296.045C358.233 296.091 358.374 296.114 358.522 296.114C358.633 296.114 358.724 296.108 358.795 296.097C358.866 296.082 358.922 296.071 358.965 296.062L359.17 296.966C359.101 296.991 359.006 297.017 358.884 297.043C358.762 297.071 358.607 297.085 358.42 297.085C358.135 297.085 357.857 297.024 357.584 296.902C357.314 296.78 357.09 296.594 356.911 296.344C356.735 296.094 356.647 295.778 356.647 295.398V288.886ZM361.709 293.062V297H360.704V288.273H361.709V291.477H361.795C361.948 291.139 362.178 290.871 362.485 290.672C362.795 290.47 363.206 290.369 363.721 290.369C364.167 290.369 364.557 290.459 364.893 290.638C365.228 290.814 365.488 291.085 365.672 291.452C365.86 291.815 365.954 292.278 365.954 292.841V297H364.948V292.909C364.948 292.389 364.813 291.987 364.543 291.703C364.276 291.416 363.905 291.273 363.431 291.273C363.101 291.273 362.806 291.342 362.545 291.482C362.286 291.621 362.081 291.824 361.931 292.091C361.783 292.358 361.709 292.682 361.709 293.062ZM315.82 304.21V303.273H322.365V304.21H319.621V312H318.564V304.21H315.82ZM325.57 312.136C324.979 312.136 324.46 311.996 324.014 311.714C323.571 311.433 323.225 311.04 322.975 310.534C322.727 310.028 322.604 309.437 322.604 308.761C322.604 308.08 322.727 307.484 322.975 306.976C323.225 306.467 323.571 306.072 324.014 305.791C324.46 305.51 324.979 305.369 325.57 305.369C326.161 305.369 326.678 305.51 327.121 305.791C327.567 306.072 327.914 306.467 328.161 306.976C328.411 307.484 328.536 308.08 328.536 308.761C328.536 309.437 328.411 310.028 328.161 310.534C327.914 311.04 327.567 311.433 327.121 311.714C326.678 311.996 326.161 312.136 325.57 312.136ZM325.57 311.233C326.019 311.233 326.388 311.118 326.678 310.888C326.968 310.658 327.182 310.355 327.321 309.98C327.46 309.605 327.53 309.199 327.53 308.761C327.53 308.324 327.46 307.916 327.321 307.538C327.182 307.161 326.968 306.855 326.678 306.622C326.388 306.389 326.019 306.273 325.57 306.273C325.121 306.273 324.752 306.389 324.462 306.622C324.172 306.855 323.958 307.161 323.818 307.538C323.679 307.916 323.61 308.324 323.61 308.761C323.61 309.199 323.679 309.605 323.818 309.98C323.958 310.355 324.172 310.658 324.462 310.888C324.752 311.118 325.121 311.233 325.57 311.233ZM331.008 309.614L330.991 308.369H331.196L334.059 305.455H335.304L332.253 308.54H332.167L331.008 309.614ZM330.071 312V303.273H331.077V312H330.071ZM334.23 312L331.673 308.761L332.389 308.062L335.508 312H334.23ZM339.073 312.136C338.442 312.136 337.898 311.997 337.441 311.719C336.986 311.438 336.635 311.045 336.388 310.543C336.144 310.037 336.022 309.449 336.022 308.778C336.022 308.108 336.144 307.517 336.388 307.006C336.635 306.491 336.979 306.091 337.42 305.804C337.863 305.514 338.38 305.369 338.971 305.369C339.312 305.369 339.648 305.426 339.981 305.54C340.313 305.653 340.616 305.838 340.888 306.094C341.161 306.347 341.378 306.682 341.54 307.099C341.702 307.517 341.783 308.031 341.783 308.642V309.068H336.738V308.199H340.76C340.76 307.83 340.687 307.5 340.539 307.21C340.394 306.92 340.187 306.692 339.917 306.524C339.65 306.357 339.334 306.273 338.971 306.273C338.57 306.273 338.224 306.372 337.931 306.571C337.641 306.767 337.418 307.023 337.262 307.338C337.106 307.653 337.028 307.991 337.028 308.352V308.932C337.028 309.426 337.113 309.845 337.283 310.189C337.456 310.53 337.697 310.79 338.003 310.969C338.31 311.145 338.667 311.233 339.073 311.233C339.337 311.233 339.576 311.196 339.789 311.122C340.005 311.045 340.191 310.932 340.347 310.781C340.503 310.628 340.624 310.437 340.709 310.21L341.681 310.483C341.579 310.812 341.407 311.102 341.165 311.352C340.924 311.599 340.626 311.793 340.27 311.932C339.915 312.068 339.516 312.136 339.073 312.136ZM344.319 308.062V312H343.313V305.455H344.285V306.477H344.37C344.523 306.145 344.756 305.878 345.069 305.676C345.381 305.472 345.785 305.369 346.279 305.369C346.722 305.369 347.11 305.46 347.442 305.642C347.775 305.821 348.033 306.094 348.218 306.46C348.403 306.824 348.495 307.284 348.495 307.841V312H347.489V307.909C347.489 307.395 347.356 306.994 347.089 306.707C346.822 306.418 346.455 306.273 345.989 306.273C345.668 306.273 345.381 306.342 345.128 306.482C344.878 306.621 344.681 306.824 344.536 307.091C344.391 307.358 344.319 307.682 344.319 308.062ZM352.48 308.318C352.48 309.392 352.34 310.381 352.058 311.284C351.78 312.185 351.381 313.014 350.861 313.773H349.975C350.179 313.491 350.369 313.145 350.546 312.733C350.725 312.324 350.881 311.875 351.014 311.386C351.148 310.895 351.252 310.388 351.325 309.865C351.402 309.339 351.441 308.824 351.441 308.318C351.441 307.642 351.375 306.956 351.244 306.26C351.114 305.564 350.938 304.918 350.716 304.321C350.494 303.724 350.247 303.239 349.975 302.864H350.861C351.381 303.622 351.78 304.453 352.058 305.357C352.34 306.257 352.48 307.244 352.48 308.318Z" fill="black"/>
<path d="M458.354 425.646C458.158 425.451 457.842 425.451 457.646 425.646L454.464 428.828C454.269 429.024 454.269 429.34 454.464 429.536C454.66 429.731 454.976 429.731 455.172 429.536L458 426.707L460.828 429.536C461.024 429.731 461.34 429.731 461.536 429.536C461.731 429.34 461.731 429.024 461.536 428.828L458.354 425.646ZM458.5 466V426H457.5V466H458.5Z" fill="black"/>
<path fill-rule="evenodd" clip-rule="evenodd" d="M426 473H490V537H426V473Z" fill="url(#paint1_linear_0_1)"/>
<path fill-rule="evenodd" clip-rule="evenodd" d="M438 520H478V491H438V520ZM480 490V521C480 521.265 479.895 521.52 479.707 521.707C479.52 521.895 479.265 522 479 522H437C436.735 522 436.48 521.895 436.293 521.707C436.105 521.52 436 521.265 436 521V490C436 489.735 436.105 489.48 436.293 489.293C436.48 489.105 436.735 489 437 489H479C479.265 489 479.52 489.105 479.707 489.293C479.895 489.48 480 489.735 480 490ZM461 512H473V510H461V512ZM471 508H475V506H471V508ZM461 508H467V506H461V508ZM448.5 510.5C448.5 510.566 448.513 510.631 448.539 510.692C448.564 510.752 448.601 510.808 448.647 510.854C448.694 510.9 448.749 510.937 448.81 510.962C448.871 510.987 448.936 511 449.002 511C449.068 511 449.133 510.987 449.194 510.961C449.254 510.936 449.31 510.899 449.356 510.853C449.402 510.806 449.439 510.751 449.464 510.69C449.489 510.629 449.502 510.564 449.502 510.498C449.502 510.365 449.449 510.238 449.355 510.144C449.26 510.05 449.133 509.998 449 509.998C448.867 509.998 448.74 510.051 448.646 510.145C448.552 510.24 448.5 510.367 448.5 510.5ZM451.5 510.5C451.499 510.986 451.357 511.461 451.091 511.867C450.824 512.274 450.445 512.594 450 512.788V515H448V512.788C447.555 512.594 447.176 512.274 446.909 511.867C446.643 511.461 446.501 510.986 446.5 510.5C446.5 509.122 447.621 508 449 508C450.379 508 451.5 509.122 451.5 510.5ZM442 515.995L455.995 516L455.996 514H453V512H455.997L455.998 510H453V508H455.999L456 506.005L442.005 506L442 515.995ZM444 504.001L454.001 504.004L454.002 499C454.002 497.976 453.2 497.273 452.722 496.945C451.847 496.345 450.174 496 449.002 496H449C446.873 496 444.003 497.232 444.002 499L444 504.001ZM440.293 517.701C440.105 517.514 440 517.259 440 516.994L440.005 505C440.005 504.735 440.11 504.48 440.298 504.293C440.485 504.105 440.74 504 441.005 504H442L442.002 499C442.003 495.911 445.876 494 449 494H449.002C450.567 494 452.653 494.473 453.854 495.295C455.239 496.246 456.003 497.562 456.002 499L456.001 504.005L457 504.006C457.265 504.006 457.52 504.111 457.707 504.299C457.895 504.486 458 504.741 458 505.006L457.995 517C457.995 517.265 457.89 517.52 457.702 517.707C457.515 517.895 457.26 518 456.995 518L441 517.994C440.869 517.994 440.739 517.968 440.617 517.918C440.496 517.868 440.386 517.794 440.293 517.701ZM473 503H475V501H473V503ZM461 503H470V501H461V503Z" fill="white"/>
<g clip-path="url(#clip1_0_1)">
<path fill-rule="evenodd" clip-rule="evenodd" d="M556 328H620V392H556V328Z" fill="url(#paint2_linear_0_1)"/>
<path fill-rule="evenodd" clip-rule="evenodd" d="M601 376C601 374.86 600.141 374 599 374C597.859 374 597 374.86 597 376C597 377.14 597.859 378 599 378C600.141 378 601 377.14 601 376ZM588 376C586.859 376 586 376.86 586 378C586 379.14 586.859 380 588 380C589.141 380 590 379.14 590 378C590 376.86 589.141 376 588 376ZM577 374C575.859 374 575 374.86 575 376C575 377.14 575.859 378 577 378C578.141 378 579 377.14 579 376C579 374.86 578.141 374 577 374ZM579.661 362H596.339L590.709 357.074L588.632 358.774C588.454 358.921 588.23 359.002 587.999 359.002C587.768 359.002 587.544 358.921 587.366 358.774L585.29 357.075L579.661 362ZM578 351.11V360.797L583.721 355.791L578 351.11ZM596.199 350H579.801L587.999 356.708L596.199 350ZM598 360.797V351.11L592.278 355.791L598 360.797ZM603 376C603 378.243 601.243 380 599 380C596.757 380 595 378.243 595 376C594.991 375.112 595.283 374.247 595.827 373.546C596.372 372.844 597.138 372.347 598 372.136V370H589V374.136C590.741 374.571 592 376.105 592 378C592 380.243 590.243 382 588 382C585.757 382 584 380.243 584 378C583.991 377.112 584.283 376.247 584.827 375.546C585.372 374.844 586.138 374.347 587 374.136V370H578V372.136C579.741 372.571 581 374.105 581 376C581 378.243 579.243 380 577 380C574.757 380 573 378.243 573 376C572.991 375.112 573.283 374.247 573.827 373.546C574.372 372.844 575.138 372.347 576 372.136V369C576 368.735 576.105 368.48 576.293 368.293C576.48 368.105 576.735 368 577 368H587V364H577C576.735 364 576.48 363.895 576.293 363.707C576.105 363.52 576 363.265 576 363V349C576 348.735 576.105 348.48 576.293 348.293C576.48 348.105 576.735 348 577 348H599C599.265 348 599.52 348.105 599.707 348.293C599.895 348.48 600 348.735 600 349V363C600 363.265 599.895 363.52 599.707 363.707C599.52 363.895 599.265 364 599 364H589V368H599C599.265 368 599.52 368.105 599.707 368.293C599.895 368.48 600 368.735 600 369V372.136C601.741 372.571 603 374.105 603 376ZM610 360C610 364.795 608.395 370.001 605.812 373.585L604.188 372.415C606.54 369.154 608 364.397 608 360C608 348.972 599.028 340 588.001 340C576.973 340 568 348.972 568 360C568 364.397 569.46 369.154 571.812 372.415L570.188 373.585C567.605 370.001 566 364.795 566 360C566 347.869 575.869 338 587.999 338C600.131 338 610 347.869 610 360Z" fill="white"/>
</g>
<path fill-rule="evenodd" clip-rule="evenodd" d="M70 328H134V392H70V328Z" fill="url(#paint3_linear_0_1)"/>
<path fill-rule="evenodd" clip-rule="evenodd" d="M113.262 380C111.696 380 110.422 378.736 110.422 377.182C110.422 375.628 111.696 374.364 113.262 374.364C114.827 374.364 116.101 375.628 116.101 377.182C116.101 378.736 114.827 380 113.26 380H113.262ZM106.544 367H98.4L94.328 360L98.4 353H106.544L110.616 360L106.544 367ZM92.746 345.636C91.18 345.636 89.906 344.372 89.906 342.818C89.906 341.264 91.18 340 92.746 340C94.311 340 95.586 341.264 95.586 342.818C95.586 344.372 94.311 345.636 92.746 345.636ZM113.262 372.364C112.72 372.364 112.207 372.473 111.719 372.636L108.616 367.438L112.652 360.5C112.832 360.19 112.832 359.81 112.652 359.5L107.998 351.5C107.818 351.19 107.486 351 107.125 351H98.801L96.024 346.349C96.987 345.468 97.6 344.217 97.6 342.818C97.6 340.162 95.423 338 92.746 338C90.068 338 87.891 340.162 87.891 342.818C87.891 345.475 90.068 347.636 92.746 347.636C93.288 347.636 93.801 347.527 94.288 347.364L96.854 351.659L92.293 359.5C92.113 359.81 92.113 360.19 92.293 360.5L96.946 368.5C97.126 368.81 97.458 369 97.819 369H107.125C107.151 369 107.175 368.992 107.2 368.99L109.983 373.651C109.021 374.532 108.408 375.783 108.408 377.182C108.408 379.838 110.585 382 113.262 382C115.939 382 118.116 379.838 118.116 377.182C118.116 374.525 115.939 372.364 113.262 372.364ZM117.934 353.636C116.368 353.636 115.094 352.372 115.094 350.818C115.094 349.264 116.367 348 117.933 348C119.497 348 120.772 349.264 120.772 350.818C120.772 352.372 119.497 353.636 117.932 353.636H117.934ZM120.979 354.539C122.073 353.655 122.788 352.325 122.788 350.818C122.788 348.162 120.611 346 117.934 346C117.317 346.002 116.706 346.121 116.134 346.353L113.404 342.432C113.215 342.162 112.905 342 112.574 342H103.507V344H112.047L114.457 347.466C113.575 348.359 113.08 349.563 113.078 350.818C113.078 353.475 115.256 355.636 117.934 355.636C118.368 355.636 118.782 355.561 119.184 355.454L121.83 360L117.98 366.616L119.726 367.616L123.865 360.5C124.045 360.19 124.045 359.81 123.865 359.5L120.979 354.539ZM87.71 371.636C86.144 371.636 84.87 370.372 84.87 368.818C84.87 367.264 86.142 366 87.708 366C89.272 366 90.547 367.264 90.547 368.818C90.547 370.372 89.272 371.636 87.707 371.636H87.71ZM90.623 372.647C91.793 371.767 92.563 370.386 92.563 368.818C92.563 366.162 90.386 364 87.709 364C87.009 364 86.345 364.155 85.744 364.421L83.17 360L87.642 352.311L85.897 351.311L81.134 359.5C80.954 359.81 80.954 360.19 81.134 360.5L84.108 365.614C83.337 366.468 82.852 367.583 82.852 368.818C82.852 371.475 85.03 373.636 87.707 373.636C88.075 373.636 88.43 373.588 88.773 373.511L91.594 377.568C91.783 377.838 92.092 378 92.424 378H101.491V376H92.954L90.621 372.647H90.623Z" fill="white"/>
<path d="M460.354 564.646C460.158 564.451 459.842 564.451 459.646 564.646L456.464 567.828C456.269 568.024 456.269 568.34 456.464 568.536C456.66 568.731 456.976 568.731 457.172 568.536L460 565.707L462.828 568.536C463.024 568.731 463.34 568.731 463.536 568.536C463.731 568.34 463.731 568.024 463.536 567.828L460.354 564.646ZM460.5 605V565H459.5V605H460.5Z" fill="black"/>
<g clip-path="url(#clip2_0_1)">
<path fill-rule="evenodd" clip-rule="evenodd" d="M303 193H367V257H303V193Z" fill="url(#paint4_linear_0_1)"/>
<path fill-rule="evenodd" clip-rule="evenodd" d="M345.84 234.997H351.84V232.997H345.84V234.997ZM337.84 234.997H343.84V232.997H337.84V234.997ZM329.84 234.997H335.84V232.997H329.84V234.997ZM339.84 228.497C339.84 228.2 339.928 227.91 340.093 227.663C340.257 227.416 340.492 227.223 340.766 227.109C341.04 226.996 341.342 226.966 341.634 227.024C341.925 227.082 342.192 227.225 342.402 227.435C342.612 227.645 342.755 227.912 342.813 228.203C342.871 228.495 342.841 228.797 342.728 229.071C342.614 229.345 342.421 229.58 342.174 229.744C341.927 229.909 341.637 229.997 341.34 229.997C340.514 229.997 339.84 229.324 339.84 228.497ZM344.84 228.497C344.84 226.567 343.27 224.997 341.34 224.997C339.412 224.997 337.84 226.567 337.84 228.497C337.84 230.427 339.412 231.997 341.34 231.997C343.27 231.997 344.84 230.427 344.84 228.497ZM333.34 229.997C332.514 229.997 331.84 229.324 331.84 228.497C331.84 227.67 332.514 226.997 333.34 226.997C333.728 227.011 334.096 227.175 334.366 227.455C334.636 227.735 334.786 228.108 334.786 228.497C334.786 228.886 334.636 229.259 334.366 229.539C334.096 229.819 333.728 229.983 333.34 229.997ZM333.34 224.997C331.412 224.997 329.84 226.567 329.84 228.497C329.84 230.427 331.412 231.997 333.34 231.997C335.27 231.997 336.84 230.427 336.84 228.497C336.84 226.567 335.27 224.997 333.34 224.997ZM356.84 218.997V238.997C356.84 239.262 356.735 239.517 356.547 239.704C356.36 239.892 356.105 239.997 355.84 239.997H329.84V237.997H354.84V219.997H335.84V217.997H355.84C356.105 217.997 356.36 218.102 356.547 218.29C356.735 218.477 356.84 218.732 356.84 218.997ZM323.904 216.892C323.379 216.891 322.876 216.683 322.505 216.311C322.133 215.94 321.925 215.437 321.924 214.912C321.924 213.822 322.813 212.934 323.904 212.934C324.429 212.935 324.932 213.143 325.302 213.514C325.673 213.885 325.882 214.388 325.882 214.913C325.882 215.438 325.673 215.941 325.302 216.312C324.932 216.683 324.429 216.891 323.904 216.892ZM323.904 210.934C322.849 210.935 321.837 211.355 321.091 212.101C320.345 212.846 319.925 213.858 319.924 214.913C319.925 215.968 320.345 216.98 321.091 217.725C321.837 218.471 322.849 218.891 323.904 218.892C324.959 218.891 325.97 218.471 326.716 217.725C327.462 216.979 327.881 215.967 327.882 214.912C327.881 213.857 327.461 212.846 326.715 212.101C325.97 211.355 324.959 210.935 323.904 210.934ZM326.534 223.046C326.333 223.111 326.157 223.238 326.033 223.408C325.908 223.579 325.841 223.785 325.841 223.996V242.576L323.901 244.476L321.841 241.669V239.039C321.841 238.894 321.81 238.751 321.749 238.62C321.688 238.489 321.6 238.372 321.49 238.278L319.384 236.486L321.49 234.695C321.713 234.505 321.84 234.225 321.84 233.933V232.23C321.84 231.937 321.713 231.658 321.49 231.468L319.384 229.677L321.49 227.885C321.713 227.695 321.84 227.415 321.84 227.123V223.996C321.84 223.784 321.773 223.577 321.648 223.405C321.522 223.234 321.345 223.107 321.143 223.043C316.763 221.655 314.257 217.39 315.185 212.901C315.855 209.655 318.351 207.053 321.544 206.27C324.262 205.602 327.053 206.185 329.196 207.866C330.248 208.685 331.099 209.735 331.683 210.934C332.267 212.133 332.569 213.449 332.565 214.783C332.565 216.622 331.981 218.413 330.897 219.898C329.813 221.383 328.285 222.486 326.534 223.046ZM334.564 214.784C334.568 213.147 334.198 211.531 333.481 210.059C332.765 208.588 331.721 207.299 330.43 206.293C327.802 204.231 324.39 203.513 321.067 204.329C317.13 205.294 314.052 208.499 313.226 212.497C312.708 214.985 313.088 217.577 314.299 219.811C315.51 222.046 317.473 223.779 319.841 224.703V226.663L317.193 228.916C317.083 229.01 316.995 229.127 316.934 229.258C316.874 229.39 316.842 229.533 316.842 229.678C316.842 229.822 316.874 229.965 316.934 230.097C316.995 230.228 317.083 230.345 317.193 230.439L319.841 232.693V233.471L317.193 235.725C317.083 235.819 316.994 235.935 316.933 236.067C316.872 236.198 316.841 236.342 316.841 236.486C316.841 236.631 316.872 236.775 316.933 236.906C316.994 237.038 317.083 237.154 317.193 237.248L319.84 239.5V241.996C319.84 242.209 319.909 242.416 320.035 242.588L322.971 246.588C323.064 246.714 323.185 246.817 323.325 246.888C323.465 246.959 323.62 246.996 323.777 246.996C324.039 246.996 324.29 246.893 324.476 246.71L327.54 243.71C327.635 243.617 327.71 243.506 327.762 243.383C327.814 243.261 327.84 243.129 327.84 242.996V224.696C329.825 223.908 331.527 222.541 332.726 220.773C333.925 219.006 334.566 216.92 334.564 214.784Z" fill="white"/>
</g>
<path d="M42 128H695V126H42V128ZM696 129V578H698V129H696ZM695 579H42V581H695V579ZM41 578V129H39V578H41ZM42 579C41.4477 579 41 578.552 41 578H39C39 579.657 40.3431 581 42 581V579ZM696 578C696 578.552 695.552 579 695 579V581C696.657 581 698 579.657 698 578H696ZM695 128C695.552 128 696 128.448 696 129H698C698 127.343 696.657 126 695 126V128ZM42 126C40.3431 126 39 127.343 39 129H41C41 128.448 41.4477 128 42 128V126Z" fill="black" fill-opacity="0.1"/>
<path d="M436.068 87.4545C436.017 87.0227 435.809 86.6875 435.446 86.4489C435.082 86.2102 434.636 86.0909 434.108 86.0909C433.721 86.0909 433.383 86.1534 433.093 86.2784C432.806 86.4034 432.582 86.5753 432.42 86.794C432.261 87.0128 432.181 87.2614 432.181 87.5398C432.181 87.7727 432.237 87.973 432.348 88.1406C432.461 88.3054 432.606 88.4432 432.782 88.554C432.958 88.6619 433.143 88.7514 433.336 88.8224C433.529 88.8906 433.707 88.946 433.869 88.9886L434.755 89.2273C434.983 89.2869 435.235 89.3693 435.514 89.4744C435.795 89.5795 436.064 89.723 436.319 89.9048C436.578 90.0838 436.791 90.3139 436.958 90.5952C437.126 90.8764 437.21 91.2216 437.21 91.6307C437.21 92.1023 437.086 92.5284 436.839 92.9091C436.595 93.2898 436.237 93.5923 435.765 93.8168C435.297 94.0412 434.727 94.1534 434.056 94.1534C433.431 94.1534 432.89 94.0526 432.433 93.8509C431.978 93.6491 431.62 93.3679 431.359 93.0071C431.1 92.6463 430.954 92.2273 430.92 91.75H432.011C432.039 92.0795 432.15 92.3523 432.343 92.5682C432.539 92.7812 432.787 92.9403 433.085 93.0455C433.386 93.1477 433.71 93.1989 434.056 93.1989C434.46 93.1989 434.822 93.1335 435.143 93.0028C435.464 92.8693 435.718 92.6847 435.906 92.4489C436.093 92.2102 436.187 91.9318 436.187 91.6136C436.187 91.3239 436.106 91.0881 435.944 90.9062C435.782 90.7244 435.569 90.5767 435.305 90.4631C435.041 90.3494 434.755 90.25 434.449 90.1648L433.375 89.858C432.693 89.6619 432.153 89.3821 431.755 89.0185C431.358 88.6548 431.159 88.179 431.159 87.5909C431.159 87.1023 431.291 86.6761 431.555 86.3125C431.822 85.946 432.18 85.6619 432.629 85.4602C433.081 85.2557 433.585 85.1534 434.142 85.1534C434.704 85.1534 435.204 85.2543 435.642 85.456C436.079 85.6548 436.426 85.9276 436.681 86.2741C436.94 86.6207 437.076 87.0142 437.091 87.4545H436.068ZM441.658 87.4545V88.3068H438.266V87.4545H441.658ZM439.254 85.8864H440.26V92.125C440.26 92.4091 440.301 92.6222 440.384 92.7642C440.469 92.9034 440.577 92.9972 440.707 93.0455C440.841 93.0909 440.982 93.1136 441.129 93.1136C441.24 93.1136 441.331 93.108 441.402 93.0966C441.473 93.0824 441.53 93.071 441.572 93.0625L441.777 93.9659C441.709 93.9915 441.614 94.017 441.491 94.0426C441.369 94.071 441.214 94.0852 441.027 94.0852C440.743 94.0852 440.464 94.0241 440.192 93.902C439.922 93.7798 439.697 93.5938 439.518 93.3438C439.342 93.0938 439.254 92.7784 439.254 92.3977V85.8864ZM443.17 94V87.4545H444.142V88.4432H444.21C444.33 88.1193 444.545 87.8565 444.858 87.6548C445.17 87.4531 445.523 87.3523 445.915 87.3523C445.989 87.3523 446.081 87.3537 446.192 87.3565C446.303 87.3594 446.386 87.3636 446.443 87.3693V88.392C446.409 88.3835 446.331 88.3707 446.209 88.3537C446.089 88.3338 445.963 88.3239 445.83 88.3239C445.511 88.3239 445.227 88.3906 444.977 88.5241C444.73 88.6548 444.534 88.8366 444.389 89.0696C444.247 89.2997 444.176 89.5625 444.176 89.858V94H443.17ZM449.561 94.1534C449.147 94.1534 448.77 94.0753 448.432 93.919C448.094 93.7599 447.826 93.5312 447.627 93.233C447.428 92.9318 447.328 92.5682 447.328 92.142C447.328 91.767 447.402 91.4631 447.55 91.2301C447.698 90.9943 447.895 90.8097 448.142 90.6761C448.39 90.5426 448.662 90.4432 448.961 90.3778C449.262 90.3097 449.564 90.2557 449.868 90.2159C450.266 90.1648 450.588 90.1264 450.836 90.1009C451.086 90.0724 451.267 90.0256 451.381 89.9602C451.498 89.8949 451.556 89.7812 451.556 89.6193V89.5852C451.556 89.1648 451.441 88.8381 451.211 88.6051C450.983 88.3722 450.638 88.2557 450.175 88.2557C449.695 88.2557 449.319 88.3608 449.046 88.571C448.773 88.7812 448.581 89.0057 448.471 89.2443L447.516 88.9034C447.686 88.5057 447.914 88.196 448.198 87.9744C448.485 87.75 448.797 87.5937 449.135 87.5057C449.476 87.4148 449.811 87.3693 450.141 87.3693C450.351 87.3693 450.593 87.3949 450.865 87.446C451.141 87.4943 451.407 87.5952 451.662 87.7486C451.921 87.902 452.135 88.1335 452.306 88.4432C452.476 88.7528 452.561 89.1676 452.561 89.6875V94H451.556V93.1136H451.505C451.436 93.2557 451.323 93.4077 451.164 93.5696C451.005 93.7315 450.793 93.8693 450.529 93.983C450.265 94.0966 449.942 94.1534 449.561 94.1534ZM449.715 93.25C450.113 93.25 450.448 93.1719 450.721 93.0156C450.996 92.8594 451.203 92.6577 451.343 92.4105C451.485 92.1634 451.556 91.9034 451.556 91.6307V90.7102C451.513 90.7614 451.419 90.8082 451.275 90.8509C451.132 90.8906 450.968 90.9261 450.78 90.9574C450.596 90.9858 450.415 91.0114 450.239 91.0341C450.066 91.054 449.925 91.071 449.817 91.0852C449.556 91.1193 449.311 91.1747 449.084 91.2514C448.86 91.3253 448.678 91.4375 448.539 91.5881C448.402 91.7358 448.334 91.9375 448.334 92.1932C448.334 92.5426 448.463 92.8068 448.722 92.9858C448.983 93.1619 449.314 93.25 449.715 93.25ZM459.515 87.4545L457.094 94H456.072L453.651 87.4545H454.742L456.549 92.6705H456.617L458.424 87.4545H459.515ZM462.569 94.1534C462.154 94.1534 461.778 94.0753 461.44 93.919C461.102 93.7599 460.833 93.5312 460.635 93.233C460.436 92.9318 460.336 92.5682 460.336 92.142C460.336 91.767 460.41 91.4631 460.558 91.2301C460.706 90.9943 460.903 90.8097 461.15 90.6761C461.397 90.5426 461.67 90.4432 461.968 90.3778C462.27 90.3097 462.572 90.2557 462.876 90.2159C463.274 90.1648 463.596 90.1264 463.843 90.1009C464.093 90.0724 464.275 90.0256 464.389 89.9602C464.505 89.8949 464.564 89.7812 464.564 89.6193V89.5852C464.564 89.1648 464.449 88.8381 464.218 88.6051C463.991 88.3722 463.646 88.2557 463.183 88.2557C462.703 88.2557 462.326 88.3608 462.054 88.571C461.781 88.7812 461.589 89.0057 461.478 89.2443L460.524 88.9034C460.694 88.5057 460.922 88.196 461.206 87.9744C461.493 87.75 461.805 87.5937 462.143 87.5057C462.484 87.4148 462.819 87.3693 463.149 87.3693C463.359 87.3693 463.6 87.3949 463.873 87.446C464.149 87.4943 464.414 87.5952 464.67 87.7486C464.929 87.902 465.143 88.1335 465.314 88.4432C465.484 88.7528 465.569 89.1676 465.569 89.6875V94H464.564V93.1136H464.512C464.444 93.2557 464.331 93.4077 464.172 93.5696C464.012 93.7315 463.801 93.8693 463.537 93.983C463.272 94.0966 462.95 94.1534 462.569 94.1534ZM462.723 93.25C463.12 93.25 463.456 93.1719 463.728 93.0156C464.004 92.8594 464.211 92.6577 464.35 92.4105C464.493 92.1634 464.564 91.9034 464.564 91.6307V90.7102C464.521 90.7614 464.427 90.8082 464.282 90.8509C464.14 90.8906 463.975 90.9261 463.788 90.9574C463.603 90.9858 463.423 91.0114 463.247 91.0341C463.074 91.054 462.933 91.071 462.825 91.0852C462.564 91.1193 462.319 91.1747 462.092 91.2514C461.868 91.3253 461.686 91.4375 461.547 91.5881C461.41 91.7358 461.342 91.9375 461.342 92.1932C461.342 92.5426 461.471 92.8068 461.73 92.9858C461.991 93.1619 462.322 93.25 462.723 93.25ZM471.274 94H470.166L473.371 85.2727H474.462L477.666 94H476.558L473.95 86.6534H473.882L471.274 94ZM471.683 90.5909H476.149V91.5284H471.683V90.5909ZM479.026 94V85.2727H481.974C482.659 85.2727 483.219 85.3963 483.653 85.6435C484.091 85.8878 484.415 86.2188 484.625 86.6364C484.835 87.054 484.94 87.5199 484.94 88.0341C484.94 88.5483 484.835 89.0156 484.625 89.4361C484.418 89.8565 484.097 90.1918 483.662 90.4418C483.227 90.6889 482.67 90.8125 481.991 90.8125H479.878V89.875H481.957C482.426 89.875 482.803 89.794 483.087 89.6321C483.371 89.4702 483.577 89.2514 483.705 88.9759C483.835 88.6974 483.901 88.3835 483.901 88.0341C483.901 87.6847 483.835 87.3722 483.705 87.0966C483.577 86.821 483.369 86.6051 483.082 86.4489C482.795 86.2898 482.415 86.2102 481.94 86.2102H480.082V94H479.026ZM487.7 85.2727V94H486.643V85.2727H487.7Z" fill="black"/>
<path d="M457 47.9268C463.683 47.9268 469.101 42.7945 469.101 36.4634C469.101 30.1324 463.683 25 457 25C450.316 25 444.898 30.1324 444.898 36.4634C444.898 42.7945 450.316 47.9268 457 47.9268Z" fill="#292D32"/>
<path d="M457 53.6585C444.875 53.6585 435 61.362 435 70.8537C435 71.4956 435.532 72 436.21 72H477.79C478.468 72 479 71.4956 479 70.8537C479 61.362 469.125 53.6585 457 53.6585Z" fill="#292D32"/>
<path d="M429.743 680C429.65 679.713 429.526 679.456 429.373 679.229C429.222 678.999 429.042 678.803 428.831 678.641C428.624 678.479 428.388 678.355 428.124 678.27C427.86 678.185 427.57 678.142 427.255 678.142C426.738 678.142 426.268 678.276 425.844 678.543C425.421 678.81 425.084 679.203 424.834 679.723C424.584 680.243 424.459 680.881 424.459 681.636C424.459 682.392 424.586 683.03 424.839 683.55C425.091 684.07 425.434 684.463 425.866 684.73C426.297 684.997 426.783 685.131 427.323 685.131C427.823 685.131 428.263 685.024 428.644 684.811C429.028 684.595 429.326 684.291 429.539 683.899C429.755 683.504 429.863 683.04 429.863 682.506L430.187 682.574H427.562V681.636H430.885V682.574C430.885 683.293 430.732 683.918 430.425 684.449C430.121 684.98 429.701 685.392 429.164 685.685C428.63 685.974 428.016 686.119 427.323 686.119C426.55 686.119 425.871 685.938 425.286 685.574C424.704 685.21 424.249 684.693 423.922 684.023C423.599 683.352 423.437 682.557 423.437 681.636C423.437 680.946 423.529 680.325 423.714 679.774C423.901 679.22 424.165 678.749 424.506 678.359C424.847 677.97 425.251 677.672 425.716 677.464C426.182 677.257 426.695 677.153 427.255 677.153C427.715 677.153 428.144 677.223 428.542 677.362C428.942 677.499 429.299 677.693 429.611 677.946C429.927 678.196 430.189 678.496 430.4 678.845C430.61 679.192 430.755 679.577 430.834 680H429.743ZM432.969 686V679.455H433.975V686H432.969ZM433.481 678.364C433.285 678.364 433.116 678.297 432.974 678.163C432.834 678.03 432.765 677.869 432.765 677.682C432.765 677.494 432.834 677.334 432.974 677.2C433.116 677.067 433.285 677 433.481 677C433.677 677 433.844 677.067 433.983 677.2C434.126 677.334 434.197 677.494 434.197 677.682C434.197 677.869 434.126 678.03 433.983 678.163C433.844 678.297 433.677 678.364 433.481 678.364ZM438.664 679.455V680.307H435.271V679.455H438.664ZM436.26 677.886H437.266V684.125C437.266 684.409 437.307 684.622 437.389 684.764C437.475 684.903 437.583 684.997 437.713 685.045C437.847 685.091 437.987 685.114 438.135 685.114C438.246 685.114 438.337 685.108 438.408 685.097C438.479 685.082 438.536 685.071 438.578 685.062L438.783 685.966C438.715 685.991 438.619 686.017 438.497 686.043C438.375 686.071 438.22 686.085 438.033 686.085C437.749 686.085 437.47 686.024 437.198 685.902C436.928 685.78 436.703 685.594 436.524 685.344C436.348 685.094 436.26 684.778 436.26 684.398V677.886ZM440.453 686V677.273H441.51V681.159H446.164V677.273H447.22V686H446.164V682.097H441.51V686H440.453ZM453.325 683.324V679.455H454.33V686H453.325V684.892H453.257C453.103 685.224 452.865 685.507 452.541 685.74C452.217 685.97 451.808 686.085 451.313 686.085C450.904 686.085 450.541 685.996 450.222 685.817C449.904 685.635 449.654 685.362 449.472 684.999C449.291 684.632 449.2 684.17 449.2 683.614V679.455H450.205V683.545C450.205 684.023 450.339 684.403 450.606 684.688C450.876 684.972 451.22 685.114 451.637 685.114C451.887 685.114 452.142 685.05 452.4 684.922C452.661 684.794 452.88 684.598 453.056 684.334C453.235 684.07 453.325 683.733 453.325 683.324ZM456.309 686V677.273H457.314V680.494H457.4C457.474 680.381 457.576 680.236 457.706 680.06C457.84 679.881 458.03 679.722 458.278 679.582C458.528 679.44 458.866 679.369 459.292 679.369C459.843 679.369 460.329 679.507 460.749 679.783C461.17 680.058 461.498 680.449 461.733 680.955C461.969 681.46 462.087 682.057 462.087 682.744C462.087 683.438 461.969 684.038 461.733 684.547C461.498 685.053 461.171 685.445 460.753 685.723C460.336 685.999 459.854 686.136 459.309 686.136C458.888 686.136 458.552 686.067 458.299 685.928C458.046 685.786 457.851 685.625 457.715 685.446C457.579 685.264 457.474 685.114 457.4 684.994H457.28V686H456.309ZM457.297 682.727C457.297 683.222 457.37 683.658 457.515 684.036C457.66 684.411 457.871 684.705 458.15 684.918C458.428 685.128 458.769 685.233 459.172 685.233C459.593 685.233 459.944 685.122 460.225 684.901C460.509 684.676 460.722 684.375 460.864 683.997C461.009 683.616 461.081 683.193 461.081 682.727C461.081 682.267 461.01 681.852 460.868 681.483C460.729 681.111 460.518 680.817 460.233 680.601C459.952 680.382 459.599 680.273 459.172 680.273C458.763 680.273 458.42 680.376 458.141 680.584C457.863 680.788 457.653 681.075 457.51 681.445C457.368 681.811 457.297 682.239 457.297 682.727ZM467.495 686H466.387L469.591 677.273H470.682L473.887 686H472.779L470.171 678.653H470.103L467.495 686ZM467.904 682.591H472.37V683.528H467.904V682.591ZM477.769 686.136C477.155 686.136 476.627 685.991 476.184 685.702C475.741 685.412 475.4 685.013 475.161 684.504C474.922 683.996 474.803 683.415 474.803 682.761C474.803 682.097 474.925 681.51 475.17 681.001C475.417 680.49 475.76 680.091 476.201 679.804C476.644 679.514 477.161 679.369 477.752 679.369C478.212 679.369 478.627 679.455 478.996 679.625C479.366 679.795 479.668 680.034 479.904 680.341C480.14 680.648 480.286 681.006 480.343 681.415H479.337C479.26 681.116 479.09 680.852 478.826 680.622C478.564 680.389 478.212 680.273 477.769 680.273C477.377 680.273 477.033 680.375 476.738 680.58C476.445 680.781 476.216 681.067 476.052 681.436C475.89 681.803 475.809 682.233 475.809 682.727C475.809 683.233 475.888 683.673 476.047 684.048C476.209 684.423 476.437 684.714 476.729 684.922C477.025 685.129 477.371 685.233 477.769 685.233C478.03 685.233 478.268 685.188 478.481 685.097C478.694 685.006 478.874 684.875 479.022 684.705C479.17 684.534 479.275 684.33 479.337 684.091H480.343C480.286 684.477 480.145 684.825 479.921 685.135C479.699 685.442 479.405 685.686 479.039 685.868C478.675 686.047 478.252 686.136 477.769 686.136ZM484.66 679.455V680.307H481.268V679.455H484.66ZM482.256 677.886H483.262V684.125C483.262 684.409 483.303 684.622 483.385 684.764C483.471 684.903 483.579 684.997 483.709 685.045C483.843 685.091 483.983 685.114 484.131 685.114C484.242 685.114 484.333 685.108 484.404 685.097C484.475 685.082 484.532 685.071 484.574 685.062L484.779 685.966C484.711 685.991 484.616 686.017 484.493 686.043C484.371 686.071 484.216 686.085 484.029 686.085C483.745 686.085 483.466 686.024 483.194 685.902C482.924 685.78 482.699 685.594 482.52 685.344C482.344 685.094 482.256 684.778 482.256 684.398V677.886ZM486.172 686V679.455H487.178V686H486.172ZM486.684 678.364C486.488 678.364 486.319 678.297 486.177 678.163C486.037 678.03 485.968 677.869 485.968 677.682C485.968 677.494 486.037 677.334 486.177 677.2C486.319 677.067 486.488 677 486.684 677C486.88 677 487.047 677.067 487.187 677.2C487.329 677.334 487.4 677.494 487.4 677.682C487.4 677.869 487.329 678.03 487.187 678.163C487.047 678.297 486.88 678.364 486.684 678.364ZM491.679 686.136C491.088 686.136 490.57 685.996 490.124 685.714C489.681 685.433 489.334 685.04 489.084 684.534C488.837 684.028 488.713 683.437 488.713 682.761C488.713 682.08 488.837 681.484 489.084 680.976C489.334 680.467 489.681 680.072 490.124 679.791C490.57 679.51 491.088 679.369 491.679 679.369C492.27 679.369 492.787 679.51 493.23 679.791C493.676 680.072 494.023 680.467 494.27 680.976C494.52 681.484 494.645 682.08 494.645 682.761C494.645 683.437 494.52 684.028 494.27 684.534C494.023 685.04 493.676 685.433 493.23 685.714C492.787 685.996 492.27 686.136 491.679 686.136ZM491.679 685.233C492.128 685.233 492.497 685.118 492.787 684.888C493.077 684.658 493.291 684.355 493.431 683.98C493.57 683.605 493.639 683.199 493.639 682.761C493.639 682.324 493.57 681.916 493.431 681.538C493.291 681.161 493.077 680.855 492.787 680.622C492.497 680.389 492.128 680.273 491.679 680.273C491.23 680.273 490.861 680.389 490.571 680.622C490.281 680.855 490.067 681.161 489.928 681.538C489.789 681.916 489.719 682.324 489.719 682.761C489.719 683.199 489.789 683.605 489.928 683.98C490.067 684.355 490.281 684.658 490.571 684.888C490.861 685.118 491.23 685.233 491.679 685.233ZM497.186 682.062V686H496.18V679.455H497.152V680.477H497.237C497.39 680.145 497.623 679.878 497.936 679.676C498.248 679.472 498.652 679.369 499.146 679.369C499.589 679.369 499.977 679.46 500.309 679.642C500.642 679.821 500.9 680.094 501.085 680.46C501.27 680.824 501.362 681.284 501.362 681.841V686H500.356V681.909C500.356 681.395 500.223 680.994 499.956 680.707C499.689 680.418 499.322 680.273 498.856 680.273C498.535 680.273 498.248 680.342 497.996 680.482C497.746 680.621 497.548 680.824 497.403 681.091C497.258 681.358 497.186 681.682 497.186 682.062Z" fill="black"/>
<path d="M460 639.927C466.683 639.927 472.101 634.794 472.101 628.463C472.101 622.132 466.683 617 460 617C453.316 617 447.898 622.132 447.898 628.463C447.898 634.794 453.316 639.927 460 639.927Z" fill="#292D32"/>
<path d="M460 645.659C447.875 645.659 438 653.362 438 662.854C438 663.496 438.532 664 439.21 664H480.79C481.468 664 482 663.496 482 662.854C482 653.362 472.125 645.659 460 645.659Z" fill="#292D32"/>
<rect x="43" y="130" width="69.75" height="30" rx="3" fill="white"/>
<rect x="43.5" y="130.5" width="68.75" height="29" rx="2.5" stroke="black" stroke-opacity="0.14902"/>
<path d="M50.2969 148H49.2813L52.2188 140H53.2188L56.1563 148H55.1406L52.75 141.266H52.6875L50.2969 148ZM50.6719 144.875H54.7656V145.734H50.6719V144.875ZM58.2324 148L56.0449 140H57.0293L58.7012 146.516H58.7793L60.4824 140H61.5762L63.2793 146.516H63.3574L65.0293 140H66.0137L63.8262 148H62.8262L61.0605 141.625H60.998L59.2324 148H58.2324ZM71.5957 142C71.5488 141.604 71.3587 141.297 71.0254 141.078C70.6921 140.859 70.2832 140.75 69.7988 140.75C69.4447 140.75 69.1348 140.807 68.8691 140.922C68.6061 141.036 68.4004 141.194 68.252 141.395C68.1061 141.595 68.0332 141.823 68.0332 142.078C68.0332 142.292 68.084 142.475 68.1855 142.629C68.2897 142.78 68.4225 142.906 68.584 143.008C68.7454 143.107 68.9147 143.189 69.0918 143.254C69.2689 143.316 69.4316 143.367 69.5801 143.406L70.3926 143.625C70.6009 143.68 70.8327 143.755 71.0879 143.852C71.3457 143.948 71.5918 144.079 71.8262 144.246C72.0632 144.41 72.2585 144.621 72.4121 144.879C72.5658 145.137 72.6426 145.453 72.6426 145.828C72.6426 146.26 72.5293 146.651 72.3027 147C72.0788 147.349 71.7507 147.626 71.3184 147.832C70.8887 148.038 70.3665 148.141 69.752 148.141C69.179 148.141 68.6829 148.048 68.2637 147.863C67.847 147.678 67.5189 147.421 67.2793 147.09C67.0423 146.759 66.9082 146.375 66.877 145.938H67.877C67.903 146.24 68.0046 146.49 68.1816 146.687C68.3613 146.883 68.5879 147.029 68.8613 147.125C69.1374 147.219 69.4342 147.266 69.752 147.266C70.1217 147.266 70.4538 147.206 70.748 147.086C71.0423 146.964 71.2754 146.794 71.4473 146.578C71.6191 146.359 71.7051 146.104 71.7051 145.812C71.7051 145.547 71.6309 145.331 71.4824 145.164C71.334 144.997 71.1387 144.862 70.8965 144.758C70.6543 144.654 70.3926 144.562 70.1113 144.484L69.127 144.203C68.502 144.023 68.0072 143.767 67.6426 143.434C67.278 143.1 67.0957 142.664 67.0957 142.125C67.0957 141.677 67.2168 141.286 67.459 140.953C67.7038 140.617 68.0319 140.357 68.4434 140.172C68.8574 139.984 69.3197 139.891 69.8301 139.891C70.3457 139.891 70.804 139.983 71.2051 140.168C71.6061 140.35 71.9238 140.6 72.1582 140.918C72.3952 141.236 72.5202 141.596 72.5332 142H71.5957ZM83.7666 142.5H82.7979C82.7406 142.221 82.6403 141.977 82.4971 141.766C82.3564 141.555 82.1846 141.378 81.9814 141.234C81.7809 141.089 81.5583 140.979 81.3135 140.906C81.0687 140.833 80.8135 140.797 80.5479 140.797C80.0635 140.797 79.6247 140.919 79.2314 141.164C78.8408 141.409 78.5296 141.77 78.2979 142.246C78.0687 142.723 77.9541 143.307 77.9541 144C77.9541 144.693 78.0687 145.277 78.2979 145.754C78.5296 146.23 78.8408 146.591 79.2314 146.836C79.6247 147.081 80.0635 147.203 80.5479 147.203C80.8135 147.203 81.0687 147.167 81.3135 147.094C81.5583 147.021 81.7809 146.913 81.9814 146.77C82.1846 146.624 82.3564 146.445 82.4971 146.234C82.6403 146.021 82.7406 145.776 82.7979 145.5H83.7666C83.6937 145.909 83.5609 146.275 83.3682 146.598C83.1755 146.921 82.9359 147.195 82.6494 147.422C82.363 147.646 82.0413 147.816 81.6846 147.934C81.3304 148.051 80.9515 148.109 80.5479 148.109C79.8656 148.109 79.2588 147.943 78.7275 147.609C78.1963 147.276 77.7783 146.802 77.4736 146.187C77.1689 145.573 77.0166 144.844 77.0166 144C77.0166 143.156 77.1689 142.427 77.4736 141.812C77.7783 141.198 78.1963 140.724 78.7275 140.391C79.2588 140.057 79.8656 139.891 80.5479 139.891C80.9515 139.891 81.3304 139.949 81.6846 140.066C82.0413 140.184 82.363 140.355 82.6494 140.582C82.9359 140.806 83.1755 141.079 83.3682 141.402C83.5609 141.723 83.6937 142.089 83.7666 142.5ZM86.1289 140V148H85.207V140H86.1289ZM90.2549 148.125C89.7132 148.125 89.238 147.996 88.8291 147.738C88.4229 147.48 88.1051 147.12 87.876 146.656C87.6494 146.193 87.5361 145.651 87.5361 145.031C87.5361 144.406 87.6494 143.861 87.876 143.395C88.1051 142.928 88.4229 142.566 88.8291 142.309C89.238 142.051 89.7132 141.922 90.2549 141.922C90.7965 141.922 91.2705 142.051 91.6768 142.309C92.0856 142.566 92.4033 142.928 92.6299 143.395C92.859 143.861 92.9736 144.406 92.9736 145.031C92.9736 145.651 92.859 146.193 92.6299 146.656C92.4033 147.12 92.0856 147.48 91.6768 147.738C91.2705 147.996 90.7965 148.125 90.2549 148.125ZM90.2549 147.297C90.6663 147.297 91.0049 147.191 91.2705 146.98C91.5361 146.77 91.7327 146.492 91.8604 146.148C91.988 145.805 92.0518 145.432 92.0518 145.031C92.0518 144.63 91.988 144.257 91.8604 143.91C91.7327 143.564 91.5361 143.284 91.2705 143.07C91.0049 142.857 90.6663 142.75 90.2549 142.75C89.8434 142.75 89.5049 142.857 89.2393 143.07C88.9736 143.284 88.777 143.564 88.6494 143.91C88.5218 144.257 88.458 144.63 88.458 145.031C88.458 145.432 88.5218 145.805 88.6494 146.148C88.777 146.492 88.9736 146.77 89.2393 146.98C89.5049 147.191 89.8434 147.297 90.2549 147.297ZM98.1621 145.547V142H99.084V148H98.1621V146.984H98.0996C97.959 147.289 97.7402 147.548 97.4434 147.762C97.1465 147.973 96.7715 148.078 96.3184 148.078C95.9434 148.078 95.61 147.996 95.3184 147.832C95.0267 147.665 94.7975 147.415 94.6309 147.082C94.4642 146.746 94.3809 146.323 94.3809 145.812V142H95.3027V145.75C95.3027 146.187 95.4251 146.536 95.6699 146.797C95.9173 147.057 96.2324 147.187 96.6152 147.187C96.8444 147.187 97.0775 147.129 97.3145 147.012C97.554 146.895 97.7546 146.715 97.916 146.473C98.0801 146.23 98.1621 145.922 98.1621 145.547ZM103.038 148.125C102.538 148.125 102.097 147.999 101.714 147.746C101.331 147.491 101.032 147.132 100.815 146.668C100.599 146.202 100.491 145.651 100.491 145.016C100.491 144.385 100.599 143.839 100.815 143.375C101.032 142.911 101.332 142.553 101.718 142.301C102.103 142.048 102.549 141.922 103.054 141.922C103.444 141.922 103.753 141.987 103.979 142.117C104.209 142.245 104.383 142.391 104.503 142.555C104.625 142.716 104.72 142.849 104.788 142.953H104.866V140H105.788V148H104.897V147.078H104.788C104.72 147.187 104.624 147.326 104.499 147.492C104.374 147.656 104.196 147.803 103.964 147.934C103.732 148.061 103.424 148.125 103.038 148.125ZM103.163 147.297C103.533 147.297 103.845 147.201 104.101 147.008C104.356 146.812 104.55 146.543 104.683 146.199C104.815 145.853 104.882 145.453 104.882 145C104.882 144.552 104.817 144.16 104.687 143.824C104.556 143.486 104.364 143.223 104.108 143.035C103.853 142.845 103.538 142.75 103.163 142.75C102.772 142.75 102.447 142.85 102.187 143.051C101.929 143.249 101.735 143.518 101.604 143.859C101.477 144.198 101.413 144.578 101.413 145C101.413 145.427 101.478 145.815 101.608 146.164C101.741 146.51 101.937 146.786 102.194 146.992C102.455 147.195 102.778 147.297 103.163 147.297Z" fill="black"/>
<defs>
<linearGradient id="paint0_linear_0_1" x1="427" y1="6732" x2="6827" y2="332" gradientUnits="userSpaceOnUse">
<stop stop-color="#C8511B"/>
<stop offset="1" stop-color="#FF9900"/>
</linearGradient>
<linearGradient id="paint1_linear_0_1" x1="426" y1="6873" x2="6826" y2="473" gradientUnits="userSpaceOnUse">
<stop stop-color="#BD0816"/>
<stop offset="1" stop-color="#FF5252"/>
</linearGradient>
<linearGradient id="paint2_linear_0_1" x1="556" y1="6728" x2="6956" y2="328" gradientUnits="userSpaceOnUse">
<stop stop-color="#BD0816"/>
<stop offset="1" stop-color="#FF5252"/>
</linearGradient>
<linearGradient id="paint3_linear_0_1" x1="70" y1="6728" x2="6470" y2="328" gradientUnits="userSpaceOnUse">
<stop stop-color="#B0084D"/>
<stop offset="1" stop-color="#FF4F8B"/>
</linearGradient>
<linearGradient id="paint4_linear_0_1" x1="303" y1="6593" x2="6703" y2="193" gradientUnits="userSpaceOnUse">
<stop stop-color="#BD0816"/>
<stop offset="1" stop-color="#FF5252"/>
</linearGradient>
<clipPath id="clip0_0_1">
<rect width="64" height="64" fill="white" transform="translate(427 332)"/>
</clipPath>
<clipPath id="clip1_0_1">
<rect width="64" height="64" fill="white" transform="translate(556 328)"/>
</clipPath>
<clipPath id="clip2_0_1">
<rect width="64" height="64" fill="white" transform="translate(303 193)"/>
</clipPath>
</defs>
</svg>
